<?xml version="1.0" encoding="utf-8"?>
<!-- Generator: Adobe Illustrator 21.0.2, SVG Export Plug-In . SVG Version: 6.00 Build 0)  -->
<svg version="1.1" id="Layer_1" xmlns="http://www.w3.org/2000/svg" xmlns:xlink="http://www.w3.org/1999/xlink" x="0px" y="0px"
	 viewBox="0 0 512 512" style="enable-background:new 0 0 512 512;" xml:space="preserve">
<style type="text/css">
	.st0{display:none;}
</style>
<path id="diagonal1" class="st0" d="M512,22.6L489.4,0H512V22.6z M361.4,0L512,150.6v-45.3L406.6,0H361.4z M233.4,0L512,278.6v-45.3
	L278.6,0H233.4z M105.4,0L512,406.6v-45.3L150.6,0H105.4z M22.6,0H0v22.6L489.4,512H512v-22.6L22.6,0z M406.6,512L0,105.4v45.3
	L361.4,512H406.6z M278.6,512L0,233.4v45.3L233.4,512H278.6z M150.6,512L0,361.4v45.3L105.4,512H150.6z M0,489.4V512h22.6L0,489.4z"
	/>
<path id="diagonal2" class="st0" d="M489.4,512l22.6-22.6V512H489.4z M512,361.4L361.4,512h45.3L512,406.6V361.4z M512,233.4
	L233.4,512h45.3L512,278.6V233.4z M512,105.4L105.4,512h45.3L512,150.6V105.4z M512,22.6V0h-22.6L0,489.4V512h22.6L512,22.6z
	 M0,406.6L406.6,0h-45.3L0,361.4V406.6z M0,278.6L278.6,0h-45.3L0,233.4V278.6z M0,150.6L150.6,0h-45.3L0,105.4V150.6z M22.6,0H0
	v22.6L22.6,0z"/>
<path id="crisscross" class="st0" d="M512,0h-22.6L448,41.4L406.6,0h-45.3L320,41.4L278.6,0h-45.3L192,41.4L150.6,0h-45.3L64,41.4
	L22.6,0H0v22.6L41.4,64L0,105.4v45.3L41.4,192L0,233.4v45.3L41.4,320L0,361.4v45.3L41.4,448L0,489.4V512h22.6L64,470.6l41.4,41.4
	h45.3l41.4-41.4l41.4,41.4h45.3l41.4-41.4l41.4,41.4h45.3l41.4-41.4l41.4,41.4H512v-22.6L470.6,448l41.4-41.4v-45.3L470.6,320
	l41.4-41.4v-45.3L470.6,192l41.4-41.4v-45.3L470.6,64L512,22.6V0z M384,22.6L425.4,64L384,105.4L342.6,64L384,22.6z M192,169.4
	L150.6,128L192,86.6l41.4,41.4L192,169.4z M256,150.6l41.4,41.4L256,233.4L214.6,192L256,150.6z M169.4,192L128,233.4L86.6,192
	l41.4-41.4L169.4,192z M192,214.6l41.4,41.4L192,297.4L150.6,256L192,214.6z M169.4,320L128,361.4L86.6,320l41.4-41.4L169.4,320z
	 M192,342.6l41.4,41.4L192,425.4L150.6,384L192,342.6z M214.6,320l41.4-41.4l41.4,41.4L256,361.4L214.6,320z M320,342.6l41.4,41.4
	L320,425.4L278.6,384L320,342.6z M342.6,320l41.4-41.4l41.4,41.4L384,361.4L342.6,320z M320,297.4L278.6,256l41.4-41.4l41.4,41.4
	L320,297.4z M342.6,192l41.4-41.4l41.4,41.4L384,233.4L342.6,192z M320,169.4L278.6,128L320,86.6l41.4,41.4L320,169.4z M256,22.6
	L297.4,64L256,105.4L214.6,64L256,22.6z M128,22.6L169.4,64L128,105.4L86.6,64L128,22.6z M22.6,128L64,86.6l41.4,41.4L64,169.4
	L22.6,128z M22.6,256L64,214.6l41.4,41.4L64,297.4L22.6,256z M22.6,384L64,342.6l41.4,41.4L64,425.4L22.6,384z M128,489.4L86.6,448
	l41.4-41.4l41.4,41.4L128,489.4z M256,489.4L214.6,448l41.4-41.4l41.4,41.4L256,489.4z M384,489.4L342.6,448l41.4-41.4l41.4,41.4
	L384,489.4z M489.4,384L448,425.4L406.6,384l41.4-41.4L489.4,384z M489.4,256L448,297.4L406.6,256l41.4-41.4L489.4,256z M489.4,128
	L448,169.4L406.6,128L448,86.6L489.4,128z"/>
<path id="zigzag" class="st0" d="M469.4,170.7l42.6,28.5v50.2l-85.3-57l-85.3,57l-85.3-57l-85.3,57l-85.3-57L0,249.3v-50.2
	l42.6-28.5l42.7-28.5l42.7,28.5l42.6,28.5l42.6-28.5l42.7-28.5l42.7,28.5l42.6,28.5l42.6-28.5l42.7-28.5L469.4,170.7z M341.3,113.8
	l-85.3-57l-85.3,57l-85.3-57L0,113.8V164l85.3-57l85.3,57l85.3-57l85.3,57l85.3-57l85.3,57v-50.2l-85.3-57L341.3,113.8z M469.4,0
	H384l-42.6,28.5L298.7,0h-85.4l-42.6,28.5L128,0H42.6L0,28.5v50.2l85.3-57l85.3,57l85.3-57l85.3,57l85.3-57l85.3,57V28.5L469.4,0z
	 M426.7,312.8L384,341.3l-42.6,28.5l-42.6-28.5L256,312.8l-42.7,28.5l-42.6,28.5L128,341.3l-42.7-28.5l-42.7,28.5L0,369.8V420
	l85.3-57l85.3,57l85.3-57l85.3,57l85.3-57l85.3,57v-50.2l-42.6-28.5L426.7,312.8z M341.3,284.5l-85.3-57l-85.3,57l-85.3-57L0,284.5
	v50.2l85.3-57l85.3,57l85.3-57l85.3,57l85.3-57l85.3,57v-50.2l-85.3-57L341.3,284.5z M42.6,512H128l-42.7-28.5L42.6,512z M213.3,512
	h85.4L256,483.5L213.3,512z M341.3,455.1l-85.3-57l-85.3,57l-85.3-57L0,455.1v50.2l85.3-57l85.3,57l85.3-57l85.3,57l85.3-57l85.3,57
	v-50.2l-85.3-57L341.3,455.1z M384,512h85.4l-42.7-28.5L384,512z"/>
<path id="worms" class="st0" d="M387.4,276c-14.1-9.8-33.3-10.9-54.1-3.4c-19.9,7.2-32.6,8-40.2,2.9c-7.8-5.4-11.9-18.5-12.2-39.2
	c-0.1-17.9-5.9-31.2-16.7-39.6c-19.7-15-48.7-7.7-49.8-7.3L218,203c0.2-0.2,23.7-5.8,37.7,4.8c7.3,5.5,11.1,15.1,11.2,28.5
	c0.1,25.8,6.1,42.4,18.3,50.6c15.4,10.6,36.4,5,53.3-1.2c16-5.9,30.9-5.1,41,1.7c9.9,6.8,15.3,19.9,15.5,37.4l14.2-0.1
	C408.7,296.5,397,282.7,387.4,276z M453,310.1c-6.4-6.6-8.6-16.6-6.8-29.8c3.6-25.6,0.2-42.8-10.4-52.9
	c-13.6-12.7-35.3-10.4-52.9-6.9c-16.6,3.3-31.5,0.4-40.3-8c-8.8-8.4-12.2-22-9.7-39.2l-14.1-2.1c-1.4,10.3-1.1,18.8,0.3,26
	c2.5,12.3,8.2,20.5,13.7,25.5c12.5,11.7,31.3,15.9,53,11.5c20.7-4.2,33.6-3.1,40.4,3.3c7,6.5,8.9,20.2,6.1,40.5
	c-2.5,17.8,1.1,31.7,10.8,41.6c17.2,17.7,47,14.8,48.1,14.6l-1.4-14.2C489.1,320.5,465.3,322.7,453,310.1z M243.3,367.9
	c-6-7-7.6-17.2-5-30.1c5.2-25.2,3-42.7-7-53.3c-12.8-13.6-34.5-12.6-52.3-10.2c-17,2.2-31.3-1.6-39.7-10.4
	c-8.2-8.8-10.8-22.6-7.2-39.9l-14-2.8c-5.8,27.7,2.6,43.7,10.8,52.3c11.8,12.6,30.1,17.8,52.1,14.8c21-2.8,33.5-1,39.9,5.8
	c6.6,7,7.8,20.8,3.6,40.7c-3.6,17.6-1,31.7,8,42.3c14.2,16.6,39.1,17.8,45.5,17.8c0.8,0,1.4,0,1.6,0l-0.6-14.2
	C278.7,380.5,254.7,381.3,243.3,367.9z M331.4,118.4c-21,1-33.5-2-39.3-9.4c-5.8-7.6-5.8-21.4,0.2-40.9c5.2-17.2,3.8-31.5-4.2-42.7
	c-14.2-20.2-44.1-21.8-45.3-22l-0.6,14.2c0.2,0,24.4,1.6,34.5,16c5.4,7.6,6,17.8,2.2,30.5c-7.6,24.6-6.8,42.3,2.2,53.7
	c11.4,14.8,33.3,15.8,51.1,15c17-0.8,31.1,4.4,38.5,14c7.4,9.6,8.6,23.6,3.6,40.3l13.6,4.2c8.2-27.1,1.4-43.9-6-53.1
	C371.3,124.4,353.5,117.4,331.4,118.4z M208,110.2c-11.4,7.8-17.8,20.8-19,38.5c-1.4,20.6-6,33.3-14.2,38.3c-8,4.8-20.6,3.4-40.1-5
	c-20.4-8.6-39.5-8.4-54.1,0.6c-10,6.2-22.4,19.6-24.2,47.7l14.2,0.8c1.2-17.6,7.2-30.1,17.4-36.5c10.4-6.4,25.4-6.4,41.1,0.4
	c16.4,7,37.3,13.8,53.1,4c12.4-7.6,19.4-24,21-49.5c0.8-13.2,5.2-22.6,12.8-27.7c14.8-10,37.7-3,37.9-2.8l4.4-13.6
	C256.9,105.2,228.6,96.2,208,110.2z M38.5,475.5c5.6-7.6,18.8-11.4,39.3-11.2c17.8,0,31.3-5,39.9-15.8c15.6-19.2,8.8-48.5,8.6-49.7
	l-13.8,3.2c0,0.2,5.2,23.8-5.8,37.5c-5.8,7.2-15,10.4-28.7,10.6c-25.9-0.6-42.5,5.2-51.1,17c-9.2,12.6-7,29.7-2.8,44.9h15
	C33.7,494.2,33.3,482.5,38.5,475.5z M489.3,512h-25.5c1.2-0.7,2.3-1.3,3.6-2c11.9-6.2,18.5-14,20-23.1c3-17.5-13.2-35.4-13.3-35.6
	l10.6-9.6c0.8,0.9,21,23.2,16.8,47.6C500.2,497.8,496,505.4,489.3,512z M488.9,123.3c-1.3,11.5-8.2,27.9-31.8,41.2
	c-0.5,0.3-0.9,0.5-1.4,0.8l-6.8-12.5c15.3-8.1,24.3-19.1,25.8-31.2c1.4-12.2-5.1-25.8-17.7-37.2c-13.2-12.1-28.1-28.2-25.9-46.6
	c1.6-13.7,12.4-26.4,32.7-37.8h25.5c-4,3.9-9,7.5-14.9,10.6c-17.9,9.8-27.9,19.6-29,29.1c-1,9.3,5.6,20.2,21.3,34.3
	C483.1,88.8,491,106.3,488.9,123.3z M408.4,456.2c-8.6-8.8-11.6-23.6-8.4-40.3c3.4-17.6,5.4-39.3-7.6-52.7
	c-10.2-10.6-27.5-13.8-52.9-9.8c-13,2-23.2-0.2-29.7-6.4c-13-12.2-11-36.1-11-36.5l-14.2-1.2c-0.2,1.2-2.6,31.1,15.4,48.1
	c10,9.4,24.2,13,41.7,10.2c20.2-3.2,33.9-1.2,40.5,5.6c6.4,6.8,7.6,19.6,3.8,40.1c-4,21.8,0.2,40.3,12.2,52.7
	c6.8,7,18.6,14.4,38.1,14.4c4.2,0,8.8-0.4,13.6-1l-2.2-14C430.6,468.2,417,465,408.4,456.2z M148.5,10.4c5.2,16.8,4,30.7-3.4,40.3
	c-7.6,9.8-21.4,15-38.5,14.2c-17.8-0.8-39.7,0.2-51.1,15c-9,11.6-9.6,29.1-2,53.7c3.8,12.6,3.2,23-2,30.5
	c-10.2,14.6-34.3,16-34.5,16l0.8,14.2c1.2,0,31.1-1.8,45.3-22c8-11.4,9.4-25.7,4-42.7c-6-19.6-6.2-33.3-0.4-40.9
	c5.8-7.4,18.2-10.4,39.3-9.6c22,0.8,39.9-6,50.5-19.6c7.2-9.4,14-26.1,5.8-53.1L148.5,10.4z M512,406.9v16.4
	c-8-3.6-16.4-9.7-25.5-18.2c-9.8-9.2-19.4-13-28.3-11.6c-17.6,2.8-29.3,23.8-29.5,24l-12.4-7c0.6-1.2,15.4-27.3,39.7-31.1
	c13.6-2.2,27.3,3,40.3,15.2C501.9,399.8,507.1,403.9,512,406.9z M136.8,363.2l-9.8,10.4c-12.8-12-25.9-17-37.7-14.6
	c-12,2.6-22.8,13-29.5,28.5c-7.2,16.4-17.8,35.5-35.9,39.3c-2,0.4-4.2,0.6-6.4,0.6c-5.5,0-11.3-1.4-17.4-4.2v-16.4
	c8.1,5,15.2,6.9,21,5.8c9-2,17.4-11.8,25.7-31.1c8.8-20.2,23-33.3,39.7-36.7C98.1,342.5,116.2,343.7,136.8,363.2z M100,0h14.2
	c-0.3,13.2,6.3,26.1,6.4,26.2L108,32.8C107.6,31.9,99.8,16.9,100,0z M173.5,402.1c9.8,14.8,20.2,34.1,13.4,51.5
	c-5.4,13.6-20.2,23.2-45.1,29.3c-13,3.2-21.4,9.2-25.2,17.6c-1.6,3.7-2.3,7.6-2.4,11.5H100c0.1-5.8,1.1-11.8,3.6-17.5
	c5.8-12.6,17.4-21.2,34.7-25.5c20-4.8,31.9-11.8,35.3-20.8c3.4-8.6-0.4-21-12-38.5c-12-18.4-15.2-37.3-9-53.3
	c4.2-11,15.2-25.6,42.5-32.3l3.4,13.8c-17,4.4-28.3,12.4-32.9,24C161.3,373.1,164.1,387.9,173.5,402.1z M494.2,230.1
	c2.2-17.8-1.8-31.7-11.6-41.3c-17.6-17.4-47.3-13.8-48.5-13.6l1.8,14.2c0.2,0,24.2-2.8,36.7,9.6c6.6,6.4,9,16.4,7.6,29.5
	c-3,25.6,0.8,42.7,11.6,52.5c5.6,5.2,12.8,7.6,20.2,8.6v-14.6c-4.4-0.8-8-2.2-10.6-4.4C494,263.9,491.6,250.5,494.2,230.1z
	 M379.9,480.1c-15.4-7.4-25.4-18.6-27.3-30.7c-2-12,3.6-24.8,16.2-37.1l-10-10.2c-20.2,20-22,37.9-20.2,49.5
	c2.8,17,15.4,31.5,35.1,41.1c13.6,6.6,22.4,12.8,26.7,19.4h15.8C410.8,497,394.4,487,379.9,480.1z M245.9,488.8
	c18-0.8,30.9-7,38.9-18.2c14.4-20.2,6-48.9,5.6-50.1l-13.6,4c0,0.2,6.6,23.6-3.6,37.7c-5.4,7.6-14.8,11.6-27.9,12.2
	c-25.7,1.2-42.1,7.6-49.9,20c-3.4,5.4-4.8,11.4-5.2,17.6h14.4c0.2-3.8,1-7.2,2.6-9.8C212.4,494.2,225.4,489.8,245.9,488.8z
	 M32.9,286.4c16.8-3.8,31.3-1.2,40.5,7c9,8.2,12.6,21.6,10.6,39.1l14.2,1.6c3.4-28.1-6.4-43.3-15.2-51.3
	c-12.8-11.6-31.5-15.2-53.1-10.4c-13,2.8-22.4,3.4-29.5,2V289C11,290.6,22.8,288.8,32.9,286.4z M497.8,78.2c0.6,0,1,0,1.6,0
	c4.6,0,8.8-0.4,12.6-1V62.9c-4.4,0.8-9,1.4-14,1.2L497.8,78.2z M35.5,57.9C45.7,44.1,47.3,25,40.3,4c-0.4-1.4-0.6-2.6-1-3.8h-15
	c0.8,2.8,1.6,5.6,2.6,8.4c5.4,16.2,4.4,31.1-2.8,40.9c-5.2,7-13.6,11.4-24,13.4v14.4C19.2,74.5,29.7,65.7,35.5,57.9z M384.2,43.7
	c-12.8,12.6-18.4,25.9-16.8,39.7c3,24.6,28.3,40.1,29.5,40.9l7.4-12.2c-0.2-0.2-20.8-13-22.8-30.3c-1-9.2,3.2-18.6,12.6-27.9
	c18.4-18.2,25.9-33.9,23.6-48.3c-0.4-1.8-0.8-3.6-1.6-5.4h-15.8c1.8,2.6,2.8,5,3.4,7.6C405.4,17.4,398.8,29.3,384.2,43.7z
	 M197.8,76.8c-6.6,10.2-19.4,16-36.7,16.8l0.6,14.2c28.1-1.2,41.7-13.4,48.1-23.2c9.4-14.4,9.8-33.7,1.6-54.1
	c-5.2-13-7.4-22.8-6.8-30.3h-14.4c-0.4,12,3.6,24.8,8,35.5C204.6,51.7,204.6,66.7,197.8,76.8z"/>
<path id="vlines" class="st0" d="M0,0L0,0v512l0,0V0z M0,0h16v512H0V0z M512,0L512,0v512l0,0V0z M496,0h16v512h-16V0z M393.6,0h32
	v512h-32V0z M291.2,0h32v512h-32V0z M188.8,0h32v512h-32V0z M86.4,0h32v512h-32V0z"/>
<path id="hlines" class="st0" d="M0,496h512v16H0V496z M0,0h512v16H0V0z M0,86.4h512v32H0V86.4z M0,188.8h512v32H0V188.8z M0,291.2
	h512v32H0V291.2z M0,393.6h512v32H0V393.6z"/>
<path id="grid" class="st0" d="M0,496h512v16H0V496z M0,0h512v16H0V0z M0,86.4h512v32H0V86.4z M0,188.8h512v32H0V188.8z M0,291.2
	h512v32H0V291.2z M0,393.6h512v32H0V393.6z M0,0h16v512H0V0z M496,0h16v512h-16V0z M393.6,0h32v512h-32V0z M291.2,0h32v512h-32V0z
	 M188.8,0h32v512h-32V0z M86.4,0h32v512h-32V0z"/>
<path id="grid2" class="st0" d="M118.4,425.6h70.4V496h-70.4V425.6z M118.4,323.2h70.4v70.4h-70.4V323.2z M118.4,220.8h70.4v70.4
	h-70.4V220.8z M220.8,16h70.4v70.4h-70.4L220.8,16L220.8,16z M118.4,16h70.4v70.4h-70.4V16z M220.8,118.4h70.4v70.4h-70.4
	L220.8,118.4L220.8,118.4z M16,118.4h70.4v70.4H16V118.4z M118.4,118.4h70.4v70.4h-70.4V118.4z M220.8,220.8h70.4v70.4h-70.4
	L220.8,220.8L220.8,220.8z M16,16h70.4v70.4H16V16z M16,425.6h70.4V496H16V425.6z M16,323.2h70.4v70.4H16V323.2z M16,220.8h70.4
	v70.4H16V220.8z M425.6,323.2H496v70.4h-70.4V323.2z M323.2,425.6h70.4V496h-70.4V425.6z M425.6,220.8H496v70.4h-70.4V220.8z
	 M425.6,118.4H496v70.4h-70.4V118.4z M425.6,425.6H496V496h-70.4V425.6z M425.6,16H496v70.4h-70.4V16z M323.2,16h70.4v70.4h-70.4V16
	z M323.2,118.4h70.4v70.4h-70.4V118.4z M220.8,425.6h70.4V496h-70.4L220.8,425.6L220.8,425.6z M323.2,220.8h70.4v70.4h-70.4V220.8z
	 M220.8,323.2h70.4v70.4h-70.4L220.8,323.2L220.8,323.2z M323.2,323.2h70.4v70.4h-70.4V323.2z"/>
<path id="soliddots" class="st0" d="M42.7,17.1c14.1,0,25.6,11.5,25.6,25.6S56.8,68.3,42.7,68.3S17.1,56.8,17.1,42.7
	S28.6,17.1,42.7,17.1z M128,51.2c14.1,0,25.6,11.5,25.6,25.6s-11.5,25.6-25.6,25.6s-25.6-11.5-25.6-25.6S113.9,51.2,128,51.2z
	 M128,17.1c11.1,0,20.5-7.1,24-17.1h-48C107.5,9.9,116.9,17.1,128,17.1z M213.3,17.1c14.1,0,25.6,11.5,25.6,25.6
	s-11.5,25.6-25.6,25.6s-25.6-11.5-25.6-25.6S199.2,17.1,213.3,17.1z M384,17.1c14.1,0,25.6,11.5,25.6,25.6S398.1,68.3,384,68.3
	s-25.6-11.5-25.6-25.6S369.9,17.1,384,17.1z M42.7,102.4c14.1,0,25.6,11.5,25.6,25.6s-11.5,25.6-25.6,25.6S17.1,142.1,17.1,128
	S28.6,102.4,42.7,102.4z M128,136.5c14.1,0,25.6,11.5,25.6,25.6s-11.5,25.6-25.6,25.6s-25.6-11.5-25.6-25.6S113.9,136.5,128,136.5z
	 M213.3,102.4c14.1,0,25.6,11.5,25.6,25.6s-11.5,25.6-25.6,25.6s-25.6-11.5-25.6-25.6S199.2,102.4,213.3,102.4z M384,102.4
	c14.1,0,25.6,11.5,25.6,25.6s-11.5,25.6-25.6,25.6s-25.6-11.5-25.6-25.6S369.9,102.4,384,102.4z M42.7,187.7
	c14.1,0,25.6,11.5,25.6,25.6s-11.5,25.6-25.6,25.6s-25.6-11.5-25.6-25.6S28.6,187.7,42.7,187.7z M128,221.9
	c14.1,0,25.6,11.5,25.6,25.6s-11.5,25.6-25.6,25.6s-25.6-11.5-25.6-25.6S113.9,221.9,128,221.9z M213.3,187.7
	c14.1,0,25.6,11.5,25.6,25.6s-11.5,25.6-25.6,25.6s-25.6-11.5-25.6-25.6S199.2,187.7,213.3,187.7z M384,187.7
	c14.1,0,25.6,11.5,25.6,25.6s-11.5,25.6-25.6,25.6s-25.6-11.5-25.6-25.6S369.9,187.7,384,187.7z M42.7,273.1
	c14.1,0,25.6,11.5,25.6,25.6s-11.5,25.6-25.6,25.6s-25.6-11.5-25.6-25.6S28.6,273.1,42.7,273.1z M128,307.2
	c14.1,0,25.6,11.5,25.6,25.6s-11.5,25.6-25.6,25.6s-25.6-11.5-25.6-25.6S113.9,307.2,128,307.2z M213.3,273.1
	c14.1,0,25.6,11.5,25.6,25.6s-11.5,25.6-25.6,25.6s-25.6-11.5-25.6-25.6S199.2,273.1,213.3,273.1z M384,273.1
	c14.1,0,25.6,11.5,25.6,25.6s-11.5,25.6-25.6,25.6s-25.6-11.5-25.6-25.6S369.9,273.1,384,273.1z M42.7,358.4
	c14.1,0,25.6,11.5,25.6,25.6s-11.5,25.6-25.6,25.6S17.1,398.1,17.1,384S28.6,358.4,42.7,358.4z M128,392.5
	c14.1,0,25.6,11.5,25.6,25.6s-11.5,25.6-25.6,25.6s-25.6-11.5-25.6-25.6S113.9,392.5,128,392.5z M213.3,358.4
	c14.1,0,25.6,11.5,25.6,25.6s-11.5,25.6-25.6,25.6s-25.6-11.5-25.6-25.6S199.2,358.4,213.3,358.4z M384,358.4
	c14.1,0,25.6,11.5,25.6,25.6s-11.5,25.6-25.6,25.6s-25.6-11.5-25.6-25.6S369.9,358.4,384,358.4z M42.7,443.7
	c14.1,0,25.6,11.5,25.6,25.6s-11.5,25.6-25.6,25.6s-25.6-11.5-25.6-25.6S28.6,443.7,42.7,443.7z M128,477.9
	c-14.1,0-25.6,11.5-25.6,25.6c0,3,0.6,5.9,1.6,8.5h48c1-2.7,1.6-5.5,1.6-8.5C153.6,489.3,142.1,477.9,128,477.9z M298.7,51.2
	c14.1,0,25.6,11.5,25.6,25.6s-11.5,25.6-25.6,25.6s-25.6-11.5-25.6-25.6S284.6,51.2,298.7,51.2z M298.7,17.1
	c11.1,0,20.5-7.1,24-17.1h-48.1C278.2,9.9,287.5,17.1,298.7,17.1z M298.7,136.5c14.1,0,25.6,11.5,25.6,25.6s-11.5,25.6-25.6,25.6
	s-25.6-11.5-25.6-25.6S284.6,136.5,298.7,136.5z M298.7,221.9c14.1,0,25.6,11.5,25.6,25.6s-11.5,25.6-25.6,25.6
	s-25.6-11.5-25.6-25.6S284.6,221.9,298.7,221.9z M298.7,307.2c14.1,0,25.6,11.5,25.6,25.6s-11.5,25.6-25.6,25.6
	s-25.6-11.5-25.6-25.6S284.6,307.2,298.7,307.2z M298.7,392.5c14.1,0,25.6,11.5,25.6,25.6s-11.5,25.6-25.6,25.6
	s-25.6-11.5-25.6-25.6S284.6,392.5,298.7,392.5z M298.7,477.9c-14.1,0-25.6,11.5-25.6,25.6c0,3,0.6,5.9,1.6,8.5h48.1
	c1-2.7,1.6-5.5,1.6-8.5C324.3,489.3,312.8,477.9,298.7,477.9z M469.3,51.2c14.1,0,25.6,11.5,25.6,25.6s-11.5,25.6-25.6,25.6
	s-25.6-11.5-25.6-25.6S455.2,51.2,469.3,51.2z M469.3,17.1c11.1,0,20.5-7.1,24-17.1h-48.1C448.8,9.9,458.2,17.1,469.3,17.1z
	 M469.3,136.5c14.1,0,25.6,11.5,25.6,25.6s-11.5,25.6-25.6,25.6s-25.6-11.5-25.6-25.6S455.2,136.5,469.3,136.5z M469.3,221.9
	c14.1,0,25.6,11.5,25.6,25.6s-11.5,25.6-25.6,25.6s-25.6-11.5-25.6-25.6S455.2,221.9,469.3,221.9z M469.3,307.2
	c14.1,0,25.6,11.5,25.6,25.6s-11.5,25.6-25.6,25.6s-25.6-11.5-25.6-25.6S455.2,307.2,469.3,307.2z M469.3,392.5
	c14.1,0,25.6,11.5,25.6,25.6s-11.5,25.6-25.6,25.6s-25.6-11.5-25.6-25.6S455.2,392.5,469.3,392.5z M469.3,477.9
	c-14.1,0-25.6,11.5-25.6,25.6c0,3,0.6,5.9,1.6,8.5h48.1c1-2.7,1.6-5.5,1.6-8.5C494.9,489.3,483.5,477.9,469.3,477.9z M213.3,443.7
	c14.1,0,25.6,11.5,25.6,25.6s-11.5,25.6-25.6,25.6s-25.6-11.5-25.6-25.6S199.2,443.7,213.3,443.7z M384,443.7
	c14.1,0,25.6,11.5,25.6,25.6s-11.5,25.6-25.6,25.6s-25.6-11.5-25.6-25.6S369.9,443.7,384,443.7z"/>
<path id="hollowdots" class="st0" d="M493.4,0c-3.5,9.9-12.9,17.1-24,17.1S448.9,10,445.4,0H322.7c-3.5,9.9-12.9,17.1-24,17.1
	S278.2,10,274.7,0H152c-3.5,9.9-12.9,17.1-24,17.1S107.5,9.9,104,0H0v512h104c-1-2.7-1.6-5.5-1.6-8.5c0-14.1,11.5-25.6,25.6-25.6
	s25.6,11.5,25.6,25.6c0,3-0.6,5.9-1.6,8.5h122.6c-1-2.7-1.6-5.5-1.6-8.5c0-14.1,11.5-25.6,25.6-25.6s25.6,11.5,25.6,25.6
	c0,3-0.6,5.9-1.6,8.5h122.6c-1-2.7-1.6-5.5-1.6-8.5c0-14.1,11.5-25.6,25.6-25.6s25.6,11.5,25.6,25.6c0,3-0.6,5.9-1.6,8.5H512V0
	H493.4z M42.7,494.9c-14.1,0-25.6-11.5-25.6-25.6s11.5-25.6,25.6-25.6s25.6,11.5,25.6,25.6S56.8,494.9,42.7,494.9z M42.7,409.6
	c-14.1,0-25.6-11.5-25.6-25.6s11.5-25.6,25.6-25.6s25.6,11.5,25.6,25.6S56.8,409.6,42.7,409.6z M42.7,324.3
	c-14.1,0-25.6-11.5-25.6-25.6s11.5-25.6,25.6-25.6s25.6,11.5,25.6,25.6S56.8,324.3,42.7,324.3z M42.7,238.9
	c-14.1,0-25.6-11.5-25.6-25.6s11.5-25.6,25.6-25.6s25.6,11.5,25.6,25.6S56.8,238.9,42.7,238.9z M42.7,153.6
	c-14.1,0-25.6-11.5-25.6-25.6s11.5-25.6,25.6-25.6s25.6,11.5,25.6,25.6S56.8,153.6,42.7,153.6z M42.7,68.3
	c-14.1,0-25.6-11.5-25.6-25.6s11.5-25.6,25.6-25.6s25.6,11.5,25.6,25.6S56.8,68.3,42.7,68.3z M128,443.7
	c-14.1,0-25.6-11.5-25.6-25.6s11.5-25.6,25.6-25.6s25.6,11.5,25.6,25.6C153.6,432.3,142.1,443.7,128,443.7z M128,358.4
	c-14.1,0-25.6-11.5-25.6-25.6s11.5-25.6,25.6-25.6s25.6,11.5,25.6,25.6S142.1,358.4,128,358.4z M128,273.1
	c-14.1,0-25.6-11.5-25.6-25.6s11.5-25.6,25.6-25.6s25.6,11.5,25.6,25.6S142.1,273.1,128,273.1z M128,187.7
	c-14.1,0-25.6-11.5-25.6-25.6s11.5-25.6,25.6-25.6s25.6,11.5,25.6,25.6C153.6,176.3,142.1,187.7,128,187.7z M128,102.4
	c-14.1,0-25.6-11.5-25.6-25.6s11.5-25.6,25.6-25.6s25.6,11.5,25.6,25.6S142.1,102.4,128,102.4z M213.3,494.9
	c-14.1,0-25.6-11.5-25.6-25.6s11.5-25.6,25.6-25.6s25.6,11.5,25.6,25.6S227.5,494.9,213.3,494.9z M213.3,409.6
	c-14.1,0-25.6-11.5-25.6-25.6s11.5-25.6,25.6-25.6s25.6,11.5,25.6,25.6S227.5,409.6,213.3,409.6z M213.3,324.3
	c-14.1,0-25.6-11.5-25.6-25.6s11.5-25.6,25.6-25.6s25.6,11.5,25.6,25.6S227.5,324.3,213.3,324.3z M213.3,238.9
	c-14.1,0-25.6-11.5-25.6-25.6s11.5-25.6,25.6-25.6s25.6,11.5,25.6,25.6S227.5,238.9,213.3,238.9z M213.3,153.6
	c-14.1,0-25.6-11.5-25.6-25.6s11.5-25.6,25.6-25.6s25.6,11.5,25.6,25.6S227.5,153.6,213.3,153.6z M213.3,68.3
	c-14.1,0-25.6-11.5-25.6-25.6s11.5-25.6,25.6-25.6s25.6,11.5,25.6,25.6S227.5,68.3,213.3,68.3z M298.7,443.7
	c-14.1,0-25.6-11.5-25.6-25.6s11.5-25.6,25.6-25.6s25.6,11.5,25.6,25.6C324.3,432.3,312.8,443.7,298.7,443.7z M298.7,358.4
	c-14.1,0-25.6-11.5-25.6-25.6s11.5-25.6,25.6-25.6s25.6,11.5,25.6,25.6S312.8,358.4,298.7,358.4z M298.7,273.1
	c-14.1,0-25.6-11.5-25.6-25.6s11.5-25.6,25.6-25.6s25.6,11.5,25.6,25.6S312.8,273.1,298.7,273.1z M298.7,187.7
	c-14.1,0-25.6-11.5-25.6-25.6s11.5-25.6,25.6-25.6s25.6,11.5,25.6,25.6C324.3,176.3,312.8,187.7,298.7,187.7z M298.7,102.4
	c-14.1,0-25.6-11.5-25.6-25.6s11.5-25.6,25.6-25.6s25.6,11.5,25.6,25.6S312.8,102.4,298.7,102.4z M384,494.9
	c-14.1,0-25.6-11.5-25.6-25.6s11.5-25.6,25.6-25.6s25.6,11.5,25.6,25.6S398.1,494.9,384,494.9z M384,409.6
	c-14.1,0-25.6-11.5-25.6-25.6s11.5-25.6,25.6-25.6s25.6,11.5,25.6,25.6S398.1,409.6,384,409.6z M384,324.3
	c-14.1,0-25.6-11.5-25.6-25.6s11.5-25.6,25.6-25.6s25.6,11.5,25.6,25.6S398.1,324.3,384,324.3z M384,238.9
	c-14.1,0-25.6-11.5-25.6-25.6s11.5-25.6,25.6-25.6s25.6,11.5,25.6,25.6S398.1,238.9,384,238.9z M384,153.6
	c-14.1,0-25.6-11.5-25.6-25.6s11.5-25.6,25.6-25.6s25.6,11.5,25.6,25.6S398.1,153.6,384,153.6z M384,68.3
	c-14.1,0-25.6-11.5-25.6-25.6s11.5-25.6,25.6-25.6s25.6,11.5,25.6,25.6S398.1,68.3,384,68.3z M469.3,443.7
	c-14.1,0-25.6-11.5-25.6-25.6s11.5-25.6,25.6-25.6s25.6,11.5,25.6,25.6C494.9,432.3,483.5,443.7,469.3,443.7z M469.3,358.4
	c-14.1,0-25.6-11.5-25.6-25.6s11.5-25.6,25.6-25.6s25.6,11.5,25.6,25.6S483.5,358.4,469.3,358.4z M469.3,273.1
	c-14.1,0-25.6-11.5-25.6-25.6s11.5-25.6,25.6-25.6s25.6,11.5,25.6,25.6S483.5,273.1,469.3,273.1z M469.3,187.7
	c-14.1,0-25.6-11.5-25.6-25.6s11.5-25.6,25.6-25.6s25.6,11.5,25.6,25.6C494.9,176.3,483.5,187.7,469.3,187.7z M469.3,102.4
	c-14.1,0-25.6-11.5-25.6-25.6s11.5-25.6,25.6-25.6s25.6,11.5,25.6,25.6S483.5,102.4,469.3,102.4z"/>
<path id="hdashes" class="st0" d="M252.8,69.3h102.4v32H252.8V69.3z M252.8,0h102.4v16H252.8V0z M252.8,154.7h102.4v32H252.8V154.7z
	 M252.8,240h102.4v32H252.8V240z M252.8,325.3h102.4v32H252.8V325.3z M252.8,410.7h102.4v32H252.8V410.7z M252.8,496h102.4v16H252.8
	V496z M380.8,197.3h102.4v32H380.8V197.3z M380.8,112h102.4v32H380.8V112z M380.8,26.7h102.4v32H380.8V26.7z M380.8,282.7h102.4v32
	H380.8V282.7z M380.8,368h102.4v32H380.8V368z M380.8,453.3h102.4v32H380.8V453.3z M124.8,197.3h102.4v32H124.8V197.3z M124.8,112
	h102.4v32H124.8V112z M124.8,26.7h102.4v32H124.8V26.7z M124.8,282.7h102.4v32H124.8V282.7z M124.8,368h102.4v32H124.8V368z
	 M124.8,453.3h102.4v32H124.8V453.3z M0,69.3h102.4v32H0V69.3z M0,0h102.4v16H0V0z M0,154.7h102.4v32H0V154.7z M0,240h102.4v32H0
	V240z M0,325.3h102.4v32H0V325.3z M0,410.7h102.4v32H0V410.7z M0,496h102.4v16H0V496z"/>
<path id="arrows" class="st0" d="M427,288.6c-2.8-1.2-6-0.8-8.4,1.2l-74.7,64.1c-3.4,2.8-3.8,8-0.8,11.2c2.8,3.4,8,3.8,11.2,0.8
	l62.1-53.3l3.2,93.2c0.2,4.4,3.8,7.8,8,7.8h0.2c4.4-0.2,7.8-3.8,7.8-8.2l-3.8-109.8C431.7,292.6,429.8,290,427,288.6z M89.2,379.8
	c1.7,2.5,4.5,3.8,7.3,3.5c2.8-0.3,5.5-2,6.6-4.7l33.1-73.2c1.8-3.9,0-8.8-4-10.6c-1-0.4-2-0.7-3-0.7c-3.2-0.1-6.3,1.5-7.6,4.7
	l-27.4,60.4L56,303.6c-2.5-3.7-7.4-4.5-11.1-2.1c-3.7,2.5-4.5,7.4-2.1,11.1L89.2,379.8z M208.7,207.2c-0.8-4.4-4.8-7.4-9.2-6.6
	c-4.4,0.8-7.4,4.8-6.6,9.2l14.4,88l-75.7-42.3c-3.8-2.2-8.8-0.8-10.8,3c-2.2,3.8-0.8,8.8,3,10.8l90.2,50.3c1.2,0.6,2.6,1,4,1
	c1.6,0,3.2-0.4,4.6-1.4c2.6-1.8,3.8-4.8,3.2-7.8L208.7,207.2z M272.5,202.6c-2.2-2.4-5.6-3.2-8.4-2c-3,1-5,3.8-5.4,7L249.9,325
	c-0.4,4.4,3,8.2,7.4,8.6c0.2,0,0.4,0,0.6,0c4.2,0,7.6-3.2,8-7.4l7.4-99.4l70.1,74.3c3,3.2,8.2,3.4,11.4,0.4c3.2-3,3.4-8.2,0.4-11.4
	L272.5,202.6z M354.5,382.5l-86.6,2.6l43.5-78c2.2-3.8,0.8-8.8-3-10.8c-3.8-2.2-8.8-0.8-10.8,3l-50.3,90.2c-1.4,2.6-1.4,5.6,0.2,8
	c1.4,2.4,4,3.8,6.8,3.8h0.2l100.8-3c4.4-0.2,7.8-3.8,7.8-8.2C362.7,385.9,358.9,382.3,354.5,382.5z M228,395.4l-96.4-39.3
	c-3-1.2-6.4-0.6-8.8,1.8c-2.2,2.4-3,5.8-1.6,8.8l42.9,99.8c1.4,3,4.2,4.8,7.4,4.8c1,0,2.2-0.2,3.2-0.6c4-1.8,6-6.4,4.2-10.6
	l-35.3-81.8l78.2,31.9c4,1.6,8.8-0.2,10.4-4.4C234.1,401.6,232.1,397,228,395.4z M413.2,95.4l-87.6,26.1l20.4-74.7
	c1.2-4.2-1.4-8.6-5.6-9.8c-4.2-1.2-8.6,1.4-9.8,5.6l-24.2,88.8c-0.8,2.8,0,5.8,2.2,7.8c1.6,1.4,3.6,2.2,5.6,2.2
	c0.8,0,1.6-0.2,2.2-0.4l101.4-30.1c4.2-1.2,6.6-5.8,5.4-10C421.8,96.4,417.4,94,413.2,95.4z M163.1,179.2l-70.7,54.3l1.4-86.8
	c0-4.4-3.4-8-7.8-8.2c-4.4,0-8,3.4-8.2,7.8l-1.8,103.2c0,3,1.6,6,4.4,7.2c1.2,0.6,2.4,0.8,3.6,0.8c1.8,0,3.4-0.6,4.8-1.6l84-64.3
	c3.6-2.6,4.2-7.8,1.4-11.2C171.7,177.1,166.7,176.5,163.1,179.2z M87.4,24.3l30.3,83.7L35.5,80.3c-4.2-1.3-8.7,0.8-10.2,5.1
	c-1.3,4.2,0.8,8.7,5.1,10.2l97.9,32.9c3,1,6.1,0.2,8.3-2c2.2-2.1,2.9-5.5,1.8-8.3l-36.1-99.4c-0.3-0.8-0.6-1.5-1.1-2.2
	c-2-2.7-5.7-4-9.1-2.7C87.9,15.6,85.8,20.2,87.4,24.3z M363.3,485.1c3.8,2.4,8.6,1.2,11-2.6c2.2-3.8,1.2-8.6-2.6-11l-88.2-53.7
	c-2.6-1.6-6-1.6-8.6,0.2c-2.6,1.6-4,4.6-3.6,7.8l10.8,86.2h16.2l-9-71.5L363.3,485.1z M39.4,0h20.3l-9.6,12.6
	c-2.7,3.5-7.9,4.2-11.3,1.5c-1.6-1.4-2.7-3.2-3-5.2c-0.3-2.2,0.2-4.3,1.5-6.1L39.4,0z M141.6,512h-16.9l-19.5-60l-45.5,60H39.4
	l62.3-82c1.7-2.3,4.7-3.6,7.7-3c2.9,0.4,5.4,2.4,6.3,5.3L141.6,512z M142.1,1.7c1.5,4.2-0.9,8.8-5.2,10.1c-4.2,1.5-8.7-0.9-10.1-5.2
	L124.7,0h16.9L142.1,1.7z M264.7,71.1c-4.2-1.6-8.8,0.4-10.4,4.4l-32.9,82.8l-43.1-75.1c-2.2-3.8-7-5.2-11-3c-3.8,2.2-5.2,7-3,11
	l51.3,89.6c1.4,2.6,4,4,7,4c0.2,0,0.4,0,0.6,0c3-0.2,5.8-2.2,6.8-5l39.1-98.2C270.9,77.6,268.9,72.7,264.7,71.1z M489.8,467.9
	c-4-1.8-8.8-0.2-10.6,3.8L460.5,512h17.6l15.6-33.7C495.6,474.5,493.8,469.7,489.8,467.9z M402.8,474.9c-2-4-6.8-5.6-10.8-3.6
	c-4,2-5.6,6.8-3.6,10.8l15,29.9h18L402.8,474.9z M240.2,455.1c-2.8-1.2-6.2-0.4-8.4,1.6L172.7,512h23.4l34.7-32.3l2.6,32.3h16
	l-4-50.1C245.2,458.7,243.2,456.1,240.2,455.1z M440.7,345.7c-3.8,2.2-5.2,7-3.2,10.8c1.4,2.6,4.2,4.2,7,4.2c1.4,0,2.6-0.4,3.8-1
	l63.7-35.3v-18.2L440.7,345.7z M429.4,259.1c-1.6,4,0.2,8.8,4.4,10.4L512,302v-17.4l-71.9-29.9C435.6,253.1,431,254.9,429.4,259.1z
	 M497.8,422.4l14.2-15.2v-23.4l-37.3,39.9c-2.2,2.2-2.8,5.4-1.6,8.4c1.2,2.8,3.8,4.8,6.8,5l32.1,2.6v-16L497.8,422.4z M454.5,173.3
	l57.5-11.4v16.4l-54.3,10.8c-4.4,1-8.6-1.8-9.4-6.2C447.5,178.6,450.3,174.3,454.5,173.3z M505.6,248.9c-2,4-0.4,8.8,3.4,10.8
	c1,0.4,2,0.8,3,0.8v-24.2L505.6,248.9z M398,141.3c-1.4-2.8-4.2-4.4-7.4-4.2c-3,0.2-5.8,2-7,4.8l-42.1,97c-1.8,4,0.2,8.8,4.2,10.6
	c1,0.4,2.2,0.6,3.2,0.6c3,0,6-1.8,7.4-4.8l35.5-81.8l40.9,76.6c2,4,7,5.4,10.8,3.2c3.8-2,5.4-7,3.2-10.8L398,141.3z M0,55.9v-29
	l2.7-4c2.4-3.6,7.4-4.6,11-2.2c3.6,2.4,4.6,7.4,2.2,11L0,55.9z M41.1,112.2c-0.6,4-4,7-8,7c-0.4,0-0.6,0-1,0L0,115.6V99.5l33.7,3.9
	C38.1,104,41.3,107.8,41.1,112.2z M512,99.5v16.1l-41.2-4.7c-2.8-0.4-5.2-2-6.4-4.6c-1.2-2.6-1-5.4,0.6-7.8l47-71.5v29l-26.6,40.5
	L512,99.5z M30.9,302.2c-0.2-3-2-5.8-5-7L0.2,284.6V302l4.2,1.8L0.2,306v18.4l26.5-14.6C29.5,308.2,31.1,305.2,30.9,302.2z
	 M45.3,359.3c3-3.2,2.8-8.2-0.4-11.4c-3.2-3-8.2-2.8-11.4,0.4L0.2,384v23.4L45.3,359.3z M74.1,445.9c4.2,0,7.6-3.2,8-7.4
	c0.4-4.4-3-8.2-7.4-8.6l-74.5-6.2v16l73.3,6C73.7,445.9,73.9,445.9,74.1,445.9z M8,256.1l47.1-91.8c1.4-2.8,1.2-6-0.8-8.4
	c-1.8-2.4-5-3.6-8-3l-46.1,9v16.4l33.1-6.6L0.2,236.3v24.2c0.2,0,0.4,0,0.6,0C3.8,260.5,6.6,258.9,8,256.1z M292.4,25.9
	c0.4,0,0.6,0,1,0c4.4-0.6,7.4-4.6,7-9l-2-16.8h-16.2l2.4,18.8C285,22.8,288.4,25.9,292.4,25.9z M441.9,66.9
	C442.1,66.9,442.1,66.9,441.9,66.9c3.2,0,6-1.8,7.2-4.6L478.1,0h-17.6l-18.8,40.5L421.2,0h-18l31.5,62.5
	C436.1,65.3,438.9,66.9,441.9,66.9z M237.6,54.1c0.4,4.2,3.8,7.4,8,7.4c0.2,0,0.4,0,0.6,0c4.4-0.4,7.6-4.2,7.4-8.6L249.5,0h-16
	L237.6,54.1z M154.3,28.1c3,3.2,8,3.4,11.4,0.4L196.1,0h-23.4l-18,16.8C151.5,19.8,151.3,24.8,154.3,28.1z"/>
<path id="sprinkles" class="st0" d="M360,254.9l-61.6,72.6c-3.8,4.3-3,10.8,1.3,14.3c2,1.5,4.3,2.5,6.5,2.5c3,0,5.8-1.3,7.8-3.5
	l61.6-72.6c3.8-4.3,3-10.8-1.3-14.3C370,250.2,363.5,250.7,360,254.9z M461.7,512h-22l30.7-74.1c2.3-5.3,8-7.8,13.3-5.5
	s7.5,8.3,5.5,13.3L461.7,512z M461.7,0l-15,36.3c-1.5,4-5.3,6.3-9.3,6.3c-1.5,0-2.8-0.3-4-0.8c-5.3-2.3-7.8-8-5.5-13.3L439.7,0
	H461.7z M395,99.9l-83.1-57.3c-4.5-3.3-11-2-14,2.5c-3.3,4.5-2,11,2.5,14l83.1,57.3c1.8,1.3,3.8,1.8,5.8,1.8c3.3,0,6.5-1.5,8.3-4.5
	C400.7,109.4,399.7,103.1,395,99.9z M424.4,274.9c-5.3-2-11,0.5-13.3,5.8l-42.5,109.1c-2,5.3,0.5,11,5.8,13.3
	c1.3,0.5,2.5,0.8,3.8,0.8c4,0,8-2.5,9.5-6.5l42.5-109.1C432.1,282.9,429.6,276.9,424.4,274.9z M351.2,161.2c-4-4-10.5-4-14.3,0
	c-4,4-4,10.5,0,14.3l67.6,66.8c2,2,4.5,3,7.3,3c2.5,0,5.3-1,7.3-3c4-4,4-10.5,0-14.3L351.2,161.2z M164.7,112.4l-60.3,66.8
	c-3.8,4.3-3.5,10.5,0.8,14.3c2,1.8,4.5,2.5,6.8,2.5c2.8,0,5.5-1.3,7.5-3.3l60.3-66.8c3.8-4.3,3.5-10.5-0.8-14.3
	C175,108.1,168.4,108.4,164.7,112.4z M305.1,219.5l-73.6,60.3c-4.3,3.5-5,10-1.5,14.3c2,2.5,5,3.8,7.8,3.8c2.3,0,4.5-0.8,6.5-2.3
	l73.6-60.3c4.3-3.5,5-10,1.5-14.3C315.9,216.5,309.6,216,305.1,219.5z M258.6,53.8c-1.5-5.3-7.3-8.5-12.8-6.8
	c-5.3,1.5-8.5,7.3-6.8,12.8l27.5,91.1c1.3,4.5,5.3,7.3,9.8,7.3c1,0,2-0.3,3-0.5c5.3-1.5,8.5-7.3,6.8-12.8L258.6,53.8z M124.2,311.1
	l-92.4,22.8c-5.5,1.3-8.8,6.8-7.5,12.3c1.3,4.8,5.3,7.8,9.8,7.8c0.8,0,1.5,0,2.5-0.3l92.4-22.8c5.5-1.3,8.8-6.8,7.5-12.3
	C135.2,313.1,129.7,309.9,124.2,311.1z M134.3,380.2L61.2,441c-4.3,3.5-5,10-1.3,14.3c2,2.5,5,3.8,7.8,3.8c2.3,0,4.5-0.8,6.5-2.3
	l73.1-60.8c4.3-3.5,5-10,1.3-14.3C145.1,377.2,138.8,376.7,134.3,380.2z M172.2,327.4c-2.8-4.8-9-6.5-14-3.5c-4.8,2.8-6.5,9-3.5,14
	l47.8,81.6c2,3.3,5.3,5,8.8,5c1.8,0,3.5-0.5,5.3-1.5c4.8-2.8,6.5-9,3.5-14L172.2,327.4z M37.9,260L0,289.2v-25.9l25.4-19.5
	c4.5-3.3,11-2.5,14.3,2C43.2,250.3,42.4,256.5,37.9,260z M512,263.3v25.9l-51.2,39.4c-2,1.3-4,2-6.3,2c-3,0-6-1.5-8-4
	c-3.5-4.5-2.8-10.8,1.8-14.3L512,263.3z M207.7,187.7l-78.3,53.6c-4.5,3.3-5.8,9.5-2.8,14c2,2.8,5.3,4.5,8.5,4.5c2,0,4-0.5,5.8-1.8
	l78.6-53.8c4.5-3.3,5.8-9.5,2.8-14C218.8,185.7,212.5,184.5,207.7,187.7z M450.7,381.7c-5.5-0.5-10.5,3.8-11,9.3
	c-0.5,5.5,3.8,10.5,9.3,11l63.1,4.8v-20.3L450.7,381.7z M445.9,74.8c-5.5-0.5-10.5,3.5-11.3,9l-10,94.6c-0.5,5.5,3.5,10.5,9,11.3
	c0.3,0,0.8,0,1,0c5.3,0,9.5-4,10-9l10-94.6C455.4,80.3,451.4,75.3,445.9,74.8z M54.3,110.6c-1-5.5-6.3-9-11.8-8c-5.5,1-9,6.3-8,11.8
	l22.3,116.9c1,4.8,5.3,8.3,10,8.3c0.8,0,1.3,0,2-0.3c5.5-1,9-6.3,8-11.8L54.3,110.6z M246.3,341.3c-4.3-3.5-10.6-2.8-14.1,1.6
	s-2.8,10.6,1.6,14.1l93,74.3c3.9,3,9.4,2.9,13-0.2c0.6-0.5,1-0.8,1.4-1.5c3.5-4.3,2.8-10.6-1.6-14.1L246.3,341.3z M505.7,87.9
	L472.5,177c-2,5.3,0.8,11,6,13c1.3,0.5,2.3,0.8,3.5,0.8c4,0,8-2.5,9.5-6.5l20.5-55.3V81.8C509.5,82.6,507,84.8,505.7,87.9z
	 M192,462.7c-5.5-1.3-11,2.3-12,7.8l-9.5,41.5h20.8l8.3-37.3C201,469.2,197.5,463.9,192,462.7z M341.9,461.7
	c-3.3-4.5-9.8-5.5-14.3-2.3l-72.3,52.1c-0.3,0.3-0.3,0.3-0.5,0.5h34.5l50.1-36.3C344.2,472.5,345.2,466.2,341.9,461.7z M33.5,452.9
	c-5.5,1-9,6.5-8,12l9,47.1h20.8l-9.8-50.8C44.3,455.4,39,451.9,33.5,452.9z M374.4,424.9c-5.5,1-9.3,6.3-8.3,11.8l12.8,75.3h20.5
	l-13.3-78.8C385.2,427.7,379.9,423.9,374.4,424.9z M32.5,409.2c5.3,0,9.8-4,10-9.5c0.5-5.5-3.8-10.5-9.3-11L0,386.2v20.3l31.8,2.5
	C32,409.2,32.3,409.2,32.5,409.2z M6.8,81.8c-2.3-0.8-4.5-0.8-6.8,0v47.1l12.8-33.8C14.5,89.6,12,83.8,6.8,81.8z M166.9,63.6
	c0.8,0.3,1.5,0.3,2.3,0.3c4.8,0,8.8-3.3,10-8l12.3-55.6h-20.8l-11.5,51.1C157.9,56.8,161.4,62.3,166.9,63.6z M253,14
	c2,2.8,5,4.3,8.3,4.3c2,0,4.3-0.8,6-2l22.3-16H255C250.8,3.5,250,9.5,253,14z M53.3,54.8c0.8,0,1.3,0,2-0.3c5.5-1,9-6.3,8-12
	l-8-42.3H34.5l9,46.3C44.3,51.6,48.6,54.8,53.3,54.8z M392,27c0.5,0,1.3,0,1.8-0.3c5.5-1,9.3-6.3,8.3-11.8l-2.5-15h-20.5l3,18.5
	C382.9,23.5,387.2,27,392,27z"/>
<path id="dotbig" class="st0" d="M256,52c112.7,0,204,91.3,204,204s-91.3,204-204,204S52,368.7,52,256S143.3,52,256,52z"/>
<path id="dotbiginv" class="st0" d="M0,0v512h512V0H0z M256,460c-112.7,0-204-91.3-204-204S143.3,52,256,52s204,91.3,204,204
	S368.7,460,256,460z"/>
<path id="spacedots" d="M137.8,456c-2,2-3.4,5.4-3.4,8.8c0,2.9,1.5,6.3,3.4,8.3c2,2.4,5.4,3.9,8.8,3.9c2.9,0,6.3-1.5,8.8-3.4
	c2-2.4,3.4-5.4,3.4-8.8c0-3.4-1.5-6.3-3.9-8.8C150.5,451.6,142.7,451.6,137.8,456z M30.9,291.3c-2.4,2-3.9,5.4-3.9,8.8
	c0,2.9,1.5,6.3,3.9,8.8c2,2,5.4,3.4,8.3,3.4c2.9,0,6.3-1.5,8.8-3.4c2-2.4,3.4-5.4,3.4-8.8s-1.5-6.3-3.4-8.8
	C43.1,286.4,34.8,286.9,30.9,291.3z M360,126.2c-2,2.4-3.4,5.4-3.4,8.8c0,2.9,1.5,6.3,3.4,8.8c2.4,2,5.4,3.4,8.8,3.4
	c3.4,0,6.3-1.5,8.8-3.4c2-2.4,3.4-5.4,3.4-8.8c0-2.9-1.5-6.3-3.4-8.8C372.7,121.3,364.9,121.3,360,126.2z M325.3,195.6
	c-2,2.4-3.4,5.4-3.4,8.8c0,2.9,1.5,6.3,3.4,8.8c2.4,2,5.4,3.4,8.8,3.4c2.9,0,6.3-1.5,8.8-3.4c2-2.4,3.4-5.4,3.4-8.8
	c0-2.9-1.5-6.3-3.4-8.8C338.5,191.2,329.7,191.2,325.3,195.6z M395.2,390.4c2.9,0,6.3-1.5,8.8-3.4c2-2.4,3.4-5.4,3.4-8.8
	c0-2.9-1.5-6.3-3.9-8.8c-4.9-4.9-12.2-4.9-17.1,0c-2,2.4-3.4,5.4-3.4,8.8c0,2.9,1.5,6.3,3.4,8.8
	C388.8,388.9,391.7,390.4,395.2,390.4z M137.8,143.8c0-3.4-1.5-6.3-3.4-8.8c-4.9-4.9-12.7-4.9-17.1,0c-2.4,2-3.9,5.4-3.9,8.8
	c0,2.9,1.5,6.3,3.4,8.8c2.4,2,5.4,3.4,8.8,3.4c2.9,0,6.3-1.5,8.8-3.4C136.4,150.1,137.8,147.2,137.8,143.8z M74.6,0.1
	c0,2.9,1.5,6.3,3.4,8.8c2.4,2,5.4,3.4,8.8,3.4c2.9,0,6.3-1.5,8.8-3.4c2-2.4,3.4-5.4,3.4-8.8c0,0,0-0.1,0-0.1H74.6
	C74.6,0,74.6,0.1,74.6,0.1z M99,512H74.6c0-3.4,1.5-6.7,3.9-8.7c4.4-4.9,12.2-4.9,17.1,0C97.5,505.7,99,508.6,99,512z M195.5,42.7
	c3.4,0,6.3-1.5,8.8-3.4c2-2.4,3.4-5.4,3.4-8.8c0-2.9-1.5-6.3-3.4-8.8c-5.4-4.4-13.2-4.4-17.6,0c-2.4,2.4-3.4,5.4-3.4,8.8
	c0,2.9,1.5,6.3,3.4,8.8C189.1,41.3,192,42.7,195.5,42.7z M455.7,443.8c-2,2.4-3.4,5.4-3.4,8.8c0,3.4,1.5,6.3,3.4,8.8
	c2.4,2,5.4,3.4,8.8,3.4c2.9,0,6.3-1.5,8.8-3.4c2-2.4,3.4-5.4,3.4-8.8c0-3.4-1.5-6.3-3.4-8.8C468.4,439.5,460.6,439.5,455.7,443.8z
	 M190.1,268.3c-2,2-3.4,5.4-3.4,8.8c0,3.4,1.5,6.3,3.4,8.8c2.4,2,5.4,3.4,8.8,3.4c3.4,0,6.3-1.5,8.8-3.9c2-2,3.4-5.4,3.4-8.3
	c0-2.9-1.5-6.3-3.9-8.8C202.3,263.9,195,263.9,190.1,268.3z M269.4,382.3c-4.4,4.4-6.3,10.3-6.3,16.1c0,5.9,2.4,11.2,6.3,16.1
	c4.4,4.4,10.3,6.8,16.1,6.8c5.9,0,11.7-2.4,16.1-6.8c4.4-4.4,6.8-10.3,6.8-16.1c0-5.9-2.4-11.7-6.8-16.1
	C293.4,374,277.7,374,269.4,382.3z M431.5,512h-45.4c0-0.1,0-0.2,0-0.3c0-5.9,2-11.7,6.3-16.1c8.3-8.3,23.9-8.3,32.2,0
	c4.4,4.4,6.8,10.3,6.8,16.1C431.5,511.8,431.5,511.9,431.5,512z M392.4,15.8c4.4,4.4,10.3,6.8,16.1,6.8c5.9,0,11.7-2.4,16.1-6.8
	c4.3-4.3,6.7-10.1,6.8-15.8h-45.4C386.2,5.7,388.6,11,392.4,15.8z M512,66.9v45.3c-0.1,0-0.2,0-0.2,0c-5.9,0-11.7-2.4-16.1-6.8
	c-3.9-4.9-6.3-10.3-6.3-16.1c0-5.9,2-11.7,6.3-16.1C499.8,68.9,505.9,66.8,512,66.9z M15.9,105.3c-4.3,4.3-10.1,6.8-15.9,6.8V66.9
	c5.9,0.1,11.8,2.1,15.9,6.2c4.4,4.4,6.8,10.3,6.8,16.1C22.7,95.1,20.3,100.9,15.9,105.3z M469.9,265.4c0-5.9-2.4-11.7-6.8-16.1
	c-8.3-8.8-23.9-8.8-32.2,0c-4.4,4.4-6.3,10.3-6.3,16.1c0,5.9,2.4,11.7,6.3,16.1c4.4,4.4,10.3,6.8,16.1,6.8c5.9,0,11.7-2.4,16.1-6.8
	C467.4,277.1,469.9,271.2,469.9,265.4z M74.8,353.3c-4.4,4.4-6.3,10.3-6.3,16.1s2.4,11.2,6.3,16.1c4.4,4.4,10.3,6.8,16.1,6.8
	s11.7-2.4,16.1-6.8s6.8-10.3,6.8-16.1c0-5.9-2.4-11.7-6.8-16.1C98.8,345,83.6,345,74.8,353.3z M315.6,40.8c-8.8-8.3-23.9-8.3-32.2,0
	c-4.4,4.4-6.3,10.3-6.3,16.1s2.4,11.2,6.3,16.1c4.4,4.4,10.3,6.8,16.1,6.8c5.9,0,11.7-2.4,16.1-6.8c4.4-4.4,6.8-10.3,6.8-16.1
	S320,45.2,315.6,40.8z"/>
<path id="waves" class="st0" d="M393.6,345.6c32.9,24.7,64,48,118.4,48v32c-65.1,0-101.9-27.7-137.6-54.4c-32.9-24.7-64-48-118.4-48
	c-55.9,0-86.9,23.5-119.8,48.3C101.1,398.1,64.8,425.6,0,425.6v-32c54.1,0,84.6-23.1,116.9-47.6c34-25.7,72.4-54.8,139.1-54.8
	C321.1,291.2,357.9,318.9,393.6,345.6z M256,188.8c-66.7,0-105.1,29.1-139.1,54.8C84.6,268.1,54.1,291.2,0,291.2v32
	c64.8,0,101.1-27.5,136.2-54.1c32.9-24.8,63.9-48.3,119.8-48.3c54.4,0,85.5,23.3,118.4,48c35.7,26.7,72.5,54.4,137.6,54.4v-32
	c-54.4,0-85.5-23.3-118.4-48C357.9,216.5,321.1,188.8,256,188.8z M256,86.4c-66.7,0-105.1,29.1-139.1,54.8
	C84.6,165.7,54.1,188.8,0,188.8v32c64.8,0,101.1-27.5,136.2-54.1c32.9-24.8,63.9-48.3,119.8-48.3c54.4,0,85.5,23.3,118.4,48
	c35.7,26.7,72.5,54.4,137.6,54.4v-32c-54.4,0-85.5-23.3-118.4-48C357.9,114.1,321.1,86.4,256,86.4z M0,0v16c31.2,0,55.8-6.4,76.9-16
	H0z M434.8,0c21.2,9.6,46,16,77.2,16V0H434.8z M333.2,0H178.1c-24,10.7-43.2,25.2-61.2,38.8C84.6,63.3,54.1,86.4,0,86.4v32
	c64.8,0,101.1-27.5,136.2-54.1C169.1,39.5,200.1,16,256,16c54.4,0,85.5,23.3,118.4,48c35.7,26.7,72.5,54.4,137.6,54.4v-32
	c-54.4,0-85.5-23.3-118.4-48C375,24.5,356.2,10.4,333.2,0z M178,512h155.2c-21.2-9.6-46-16-77.2-16C224.6,496,199.4,502.5,178,512z
	 M256,393.6c-66.7,0-105.1,29.1-139.1,54.8C84.6,472.9,54.1,496,0,496v16h76.9c22.6-10.3,41.1-24.3,59.3-38.1
	c32.9-24.8,63.9-48.3,119.8-48.3c54.4,0,85.5,23.3,118.4,48c18.6,13.9,37.4,28,60.4,38.4H512v-16c-54.4,0-85.5-23.3-118.4-48
	C357.9,421.3,321.1,393.6,256,393.6z"/>
<path id="tinydots" class="st0" d="M152.4,128c0,13.5-10.9,24.4-24.4,24.4s-24.4-10.9-24.4-24.4s10.9-24.4,24.4-24.4
	S152.4,114.5,152.4,128z M64,39.6c-13.5,0-24.4,10.9-24.4,24.4S50.5,88.4,64,88.4S88.4,77.5,88.4,64S77.5,39.6,64,39.6z M192,167.6
	c-13.5,0-24.4,10.9-24.4,24.4s10.9,24.4,24.4,24.4s24.4-10.9,24.4-24.4S205.5,167.6,192,167.6z M231.6,0c0,13.5,10.9,24.4,24.4,24.4
	S280.4,13.5,280.4,0H256H231.6z M0,231.6V256v24.4c13.5,0,24.4-10.9,24.4-24.4S13.5,231.6,0,231.6z M0,24.4
	c13.5,0,24.4-10.9,24.4-24.4H0V24.4z M256,231.6c-13.5,0-24.4,10.9-24.4,24.4s10.9,24.4,24.4,24.4s24.4-10.9,24.4-24.4
	S269.5,231.6,256,231.6z M487.6,0c0,13.5,10.9,24.4,24.4,24.4V0H487.6z M384,103.6c-13.5,0-24.4,10.9-24.4,24.4s10.9,24.4,24.4,24.4
	s24.4-10.9,24.4-24.4S397.5,103.6,384,103.6z M487.6,256c0,13.5,10.9,24.4,24.4,24.4V256v-24.4C498.5,231.6,487.6,242.5,487.6,256z
	 M448,167.6c-13.5,0-24.4,10.9-24.4,24.4s10.9,24.4,24.4,24.4s24.4-10.9,24.4-24.4S461.5,167.6,448,167.6z M320,39.6
	c-13.5,0-24.4,10.9-24.4,24.4s10.9,24.4,24.4,24.4s24.4-10.9,24.4-24.4S333.5,39.6,320,39.6z M0,487.6V512h24.4
	C24.4,498.5,13.5,487.6,0,487.6z M128,359.6c-13.5,0-24.4,10.9-24.4,24.4s10.9,24.4,24.4,24.4s24.4-10.9,24.4-24.4
	S141.5,359.6,128,359.6z M64,295.6c-13.5,0-24.4,10.9-24.4,24.4s10.9,24.4,24.4,24.4s24.4-10.9,24.4-24.4S77.5,295.6,64,295.6z
	 M192,423.6c-13.5,0-24.4,10.9-24.4,24.4s10.9,24.4,24.4,24.4s24.4-10.9,24.4-24.4S205.5,423.6,192,423.6z M384,359.6
	c-13.5,0-24.4,10.9-24.4,24.4s10.9,24.4,24.4,24.4s24.4-10.9,24.4-24.4S397.5,359.6,384,359.6z M320,295.6
	c-13.5,0-24.4,10.9-24.4,24.4s10.9,24.4,24.4,24.4s24.4-10.9,24.4-24.4S333.5,295.6,320,295.6z M448,423.6
	c-13.5,0-24.4,10.9-24.4,24.4s10.9,24.4,24.4,24.4s24.4-10.9,24.4-24.4S461.5,423.6,448,423.6z M256,487.6
	c-13.5,0-24.4,10.9-24.4,24.4H256h24.4C280.4,498.5,269.5,487.6,256,487.6z M487.6,512H512v-24.4C498.5,487.6,487.6,498.5,487.6,512
	z"/>
<path id="crosses" class="st0" d="M139.3,0l22.1,22L150,33.3l-22-22l-22,22L94.7,22l22-22H139.3z M0,116.7v22.6l22,22l11.3-11.3
	l-22-22.1l22.1-22L22.1,94.6L0,116.7z M139.3,256l22.1-22L150,222.6l-22,22.1l-22-22.1L94.7,234l22,22l-22,22l11.3,11.3l22-22l22,22
	l11.4-11.3L139.3,256L139.3,256z M128,500.7l-22-22.1L94.7,490l22,22h22.6l22.1-22L150,478.6L128,500.7z M22.1,350.6L0,372.7v22.6
	l22,22l11.3-11.3l-22-22.1l22.1-22L22.1,350.6z M256,116.7l-22-22.1L222.7,106l22,22l-22,22l11.3,11.3l22-22v0l22,22l11.3-11.3
	l-22-22.1l22.1-22l-11.3-11.3L256,116.7z M490,94.6L478.7,106l22,22l-22,22l11.3,11.3l22-22v-22.6L490,94.6z M372.7,0l-22,22
	L362,33.3l22-22l22,22L417.4,22L395.3,0H372.7z M278.1,350.6L256,372.7l-22-22.1L222.7,362l22,22l-22,22l11.3,11.3l22-22v0l22,22
	l11.3-11.3l-22-22.1l22.1-22L278.1,350.6z M395.3,256l22.1-22L406,222.6l-22,22.1l-22-22.1L350.7,234l22,22l-22,22l11.3,11.3l22-22
	l22,22l11.4-11.3L395.3,256L395.3,256z M384,500.7l-22-22.1L350.7,490l22,22h22.6l22.1-22L406,478.6L384,500.7z M478.7,362l22,22
	l-22,22l11.3,11.3l22-22v-22.6l-22-22.1L478.7,362z"/>
</svg>
