<?xml version="1.0" encoding="utf-8"?>
<!-- Generator: Adobe Illustrator 21.0.2, SVG Export Plug-In . SVG Version: 6.00 Build 0)  -->
<svg version="1.1" id="Layer_1" xmlns="http://www.w3.org/2000/svg" xmlns:xlink="http://www.w3.org/1999/xlink" x="0px" y="0px"
	 viewBox="0 0 600 360" style="enable-background:new 0 0 600 360;" xml:space="preserve">
<rect x="0" y="0" width="30" height="150"/>
<rect x="510" y="120" width="30" height="120"/>
<rect x="30" y="240" width="30" height="30"/>
<rect x="180" y="180" width="30" height="150"/>
<rect x="330" y="240" width="30" height="90"/>
<rect x="90" y="30" width="150" height="30"/>
<rect x="0" y="150" width="30" height="30"/>
<rect x="30" y="0" width="30" height="60"/>
<rect x="30" y="270" width="30" height="60"/>
<rect x="90" y="0" width="150" height="30"/>
<rect x="330" y="30" width="240" height="30"/>
<rect x="60" y="120" width="90" height="30"/>
<rect x="90" y="330" width="120" height="30"/>
<rect x="450" y="330" width="90" height="30"/>
<rect x="60" y="0" width="30" height="120"/>
<rect x="240" y="180" width="30" height="120"/>
<rect x="330" y="60" width="30" height="180"/>
<rect x="540" y="60" width="30" height="270"/>
<rect x="0" y="240" width="30" height="60"/>
<rect x="150" y="120" width="60" height="30"/>
<rect x="360" y="300" width="30" height="60"/>
<rect x="90" y="300" width="90" height="30"/>
<rect x="30" y="60" width="30" height="90"/>
<rect x="300" y="60" width="30" height="240"/>
<rect x="210" y="150" width="30" height="180"/>
<rect x="60" y="330" width="30" height="30"/>
<rect x="390" y="300" width="150" height="30"/>
<rect x="360" y="0" width="120" height="30"/>
<rect x="570" y="60" width="30" height="30"/>
<rect x="510" y="60" width="30" height="60"/>
<rect x="30" y="150" width="180" height="30"/>
<rect x="480" y="0" width="60" height="30"/>
<rect x="390" y="330" width="60" height="30"/>
<rect x="60" y="240" width="30" height="90"/>
<rect x="360" y="60" width="30" height="240"/>
<rect x="510" y="240" width="30" height="60"/>
<rect x="570" y="90" width="30" height="210"/>
</svg>
