<?xml version="1.0" encoding="utf-8"?>
<!-- Generator: Adobe Illustrator 21.0.2, SVG Export Plug-In . SVG Version: 6.00 Build 0)  -->
<svg version="1.1" id="Layer_1" xmlns="http://www.w3.org/2000/svg" xmlns:xlink="http://www.w3.org/1999/xlink" x="0px" y="0px"
	 viewBox="0 0 21 14" style="enable-background:new 0 0 21 14;" xml:space="preserve">
<style type="text/css">
	.st0{fill:#FF00FF;}
	.st1{fill:#00FFFF;}
	.st2{fill:#00FF00;}
	.st3{fill:#FF0000;}
	.st4{fill:#0000FF;}
</style>
<rect x="1" y="1" class="st0" width="1" height="5"/>
<rect x="17" y="5" class="st0" width="1" height="4"/>
<rect x="2" y="9" class="st0" width="1" height="1"/>
<rect x="7" y="7" class="st0" width="1" height="5"/>
<rect x="12" y="9" class="st0" width="1" height="3"/>
<rect x="4" y="2" class="st0" width="5" height="1"/>
<rect x="1" y="6" class="st1" width="1" height="1"/>
<rect x="2" y="1" class="st1" width="1" height="2"/>
<rect x="2" y="10" class="st1" width="1" height="2"/>
<rect x="4" y="1" class="st1" width="5" height="1"/>
<rect x="12" y="2" class="st1" width="7" height="1"/>
<rect x="3" y="5" class="st1" width="3" height="1"/>
<rect x="4" y="12" class="st1" width="4" height="1"/>
<rect x="14" y="12" class="st1" width="4" height="1"/>
<rect x="3" y="1" class="st2" width="1" height="4"/>
<rect x="9" y="7" class="st2" width="1" height="4"/>
<rect x="12" y="3" class="st2" width="1" height="6"/>
<rect x="18" y="3" class="st2" width="1" height="9"/>
<rect x="1" y="9" class="st2" width="1" height="2"/>
<rect x="6" y="5" class="st2" width="2" height="1"/>
<rect x="13" y="11" class="st2" width="1" height="2"/>
<rect x="4" y="11" class="st2" width="3" height="1"/>
<rect x="2" y="3" class="st3" width="1" height="3"/>
<rect x="11" y="3" class="st3" width="1" height="8"/>
<rect x="8" y="6" class="st3" width="1" height="6"/>
<rect x="3" y="12" class="st3" width="1" height="1"/>
<rect x="14" y="11" class="st3" width="4" height="1"/>
<rect x="13" y="1" class="st3" width="3" height="1"/>
<rect x="19" y="3" class="st3" width="1" height="1"/>
<rect x="17" y="3" class="st3" width="1" height="2"/>
<rect x="2" y="6" class="st4" width="6" height="1"/>
<rect x="16" y="1" class="st4" width="2" height="1"/>
<rect x="3" y="9" class="st4" width="1" height="3"/>
<rect x="13" y="3" class="st4" width="1" height="8"/>
<rect x="17" y="9" class="st4" width="1" height="2"/>
<rect x="19" y="4" class="st4" width="1" height="7"/>
</svg>
