<?xml version="1.0" encoding="utf-8"?>
<!-- Generator: Adobe Illustrator 21.0.2, SVG Export Plug-In . SVG Version: 6.00 Build 0)  -->
<svg version="1.1" xmlns="http://www.w3.org/2000/svg" xmlns:xlink="http://www.w3.org/1999/xlink" x="0px" y="0px"
	 viewBox="0 0 512 512" style="enable-background:new 0 0 512 512;" xml:space="preserve">
<style type="text/css">
	.st0{display:none;}
	.st1{display:inline;}
	.st2{display:inline;fill:#231F20;}
	.st3{display:inline;stroke:#000000;}
	
		.st4{display:inline;fill:#231F20;stroke:#231F20;stroke-width:0.25;stroke-linecap:round;stroke-linejoin:bevel;stroke-miterlimit:10;}
</style>
<g id="vStripes" class="st0">
	<rect class="st1" width="256" height="512"/>
</g>
<g id="hStripes" class="st0">
	<rect x="128" y="-128" transform="matrix(-1.836970e-16 1 -1 -1.836970e-16 384 -128)" class="st1" width="256" height="512"/>
</g>
<g id="checkers" class="st0">
	<rect class="st1" width="256" height="256"/>
	<rect x="256" y="256" class="st1" width="256" height="256"/>
</g>
<g id="triangles" class="st0">
	<polygon class="st2" points="0.3,512 512,512 256.1,0.3 	"/>
</g>
<g id="plus" class="st0">
	<rect x="128" y="240" class="st2" width="256" height="32"/>
	<rect x="240" y="128" class="st2" width="32" height="256"/>
</g>
<g id="gridLines" class="st0">
	<rect x="32" y="32" class="st1" width="448" height="448"/>
</g>
<g id="crissCross" class="st0">
	
		<rect x="-106" y="224" transform="matrix(0.7071 -0.7071 0.7071 0.7071 -106.0387 256.0039)" class="st1" width="724.1" height="64"/>
	
		<rect x="224" y="-106" transform="matrix(0.7071 -0.7071 0.7071 0.7071 -106.0387 256.0003)" class="st1" width="64" height="724.1"/>
</g>
<g id="hDashes" class="st0">
	<rect y="448" class="st1" width="256" height="64"/>
	<rect x="256" y="192" class="st1" width="256" height="64"/>
</g>
<g id="dotsSolid" class="st0">
	<circle class="st3" cx="256" cy="256" r="128"/>
</g>
<g id="dotsHollow" class="st0">
	<path class="st1" d="M128,503.7C62,503.7,8.3,450,8.3,384S62,264.3,128,264.3S247.7,318,247.7,384S194,503.7,128,503.7z M128,296.3
		c-48.3,0-87.7,39.3-87.7,87.7s39.3,87.7,87.7,87.7s87.7-39.3,87.7-87.7S176.3,296.3,128,296.3z"/>
	<path class="st1" d="M384,247.7c-66,0-119.7-53.7-119.7-119.7S318,8.3,384,8.3S503.7,62,503.7,128S450,247.7,384,247.7z M384,40.3
		c-48.3,0-87.7,39.3-87.7,87.7s39.3,87.7,87.7,87.7s87.7-39.3,87.7-87.7S432.3,40.3,384,40.3z"/>
</g>
<g id="dotsdiagonal">
	<path d="M128,503.7C62,503.7,8.3,450,8.3,384S62,264.3,128,264.3S247.7,318,247.7,384S194,503.7,128,503.7z"/>
	<path d="M384,247.7c-66,0-119.7-53.7-119.7-119.7S318,8.3,384,8.3S503.7,62,503.7,128S450,247.7,384,247.7z"/>
</g>
<g id="trisTras" class="st0">
	<polygon class="st1" points="256,512 0,256 256,0 	"/>
	<polygon class="st1" points="512,768 256,512 512,256 	"/>
	<polygon class="st1" points="512,256 256,0 512,-256 	"/>
</g>
<g id="tdCubes" class="st0">
	<path class="st2" d="M425.2,433.2H53c-4.4,0-8-3.6-8-8V53c0-4.4,3.6-8,8-8h372.2c4.4,0,8,3.6,8,8v372.2
		C433.2,429.6,429.6,433.2,425.2,433.2z M61,417.2h356.2V61H61V417.2z"/>
	<path class="st2" d="M459,467c-2.1,0-4.1-0.8-5.7-2.3l-33.8-33.8c-1.5-1.5-2.3-3.5-2.3-5.7V53c0-3.2,1.9-6.2,4.9-7.4
		c3-1.2,6.4-0.6,8.7,1.7l33.8,33.8c1.5,1.5,2.3,3.5,2.3,5.7V459c0,3.2-1.9,6.2-4.9,7.4C461.1,466.8,460,467,459,467z M433.2,421.9
		l17.8,17.8V90.1l-17.8-17.8V421.9z"/>
	<path class="st2" d="M459,467H86.8c-2.1,0-4.2-0.8-5.7-2.3l-33.8-33.8c-2.3-2.3-3-5.7-1.7-8.7s4.2-4.9,7.4-4.9h372.2
		c2.1,0,4.2,0.8,5.7,2.3l33.8,33.8c2.3,2.3,3,5.7,1.7,8.7S462.2,467,459,467z M90.1,451h349.5l-17.8-17.8H72.3L90.1,451z"/>
</g>
<g id="ls" class="st0">
	<polygon class="st2" points="85.3,426.7 85.3,341.3 0,341.3 0,426.7 0,512 85.3,512 170.7,512 170.7,426.7 	"/>
	<polygon class="st2" points="341.3,426.7 341.3,341.3 256,341.3 256,426.7 256,512 341.3,512 426.7,512 426.7,426.7 	"/>
	<polygon class="st2" points="170.7,256 170.7,170.7 85.3,170.7 85.3,256 85.3,341.3 170.7,341.3 256,341.3 256,256 	"/>
	<polygon class="st2" points="426.7,256 426.7,170.7 341.3,170.7 341.3,256 341.3,341.3 426.7,341.3 512,341.3 512,256 	"/>
	<polygon class="st2" points="256,85.3 256,0 170.7,0 170.7,85.3 170.7,170.7 256,170.7 341.3,170.7 341.3,85.3 	"/>
	<rect y="85.3" class="st2" width="85.3" height="85.3"/>
	<rect x="426.7" class="st2" width="85.3" height="170.7"/>
</g>
<g id="zigzag" class="st0">
	<polygon class="st4" points="512,341.4 256,170.4 0,341.4 0,512 256,341 512,512 	"/>
	<polygon class="st4" points="512,85.4 256,-85.6 0,85.4 0,256 256,85 512,256 	"/>
	<polygon class="st4" points="512,597.4 256,426.4 0,597.4 0,768 256,597 512,768 	"/>
</g>
<g id="morisc" class="st0">
	<rect x="-16" class="st2" width="32" height="512"/>
	<rect x="496" class="st2" width="32" height="512"/>
	<rect y="-16" class="st2" width="512" height="32"/>
	<rect y="496" class="st2" width="512" height="32"/>
	<rect x="-106" y="240" transform="matrix(0.7071 -0.7071 0.7071 0.7071 -106.0387 256)" class="st2" width="724.1" height="32"/>
	<rect x="240" y="-106" transform="matrix(0.7071 -0.7071 0.7071 0.7071 -106.0387 256)" class="st2" width="32" height="724.1"/>
</g>
<g id="hexagon" class="st0">
	<path class="st2" d="M256,308.4L120,229V70.2L256-9.3l136,79.5V229L256,308.4z M136,219.8l120,70.1l120-70.1V79.4L256,9.3L136,79.4
		V219.8z"/>
	<path class="st2" d="M0,308.4L-136,229V70.2L0-9.3l136,79.5V229L0,308.4z M-120,219.8L0,289.9l120-70.1V79.4L0,9.3l-120,70.1V219.8
		z"/>
	<path class="st2" d="M512,308.4L376,229V70.2L512-9.3l136,79.5V229L512,308.4z M392,219.8l120,70.1l120-70.1V79.4L512,9.3L392,79.4
		V219.8z"/>
	<path class="st2" d="M384,564.4L248,485V326.2l136-79.5l136,79.5V485L384,564.4z M264,475.8l120,70.1l120-70.1V335.4l-120-70.1
		l-120,70.1V475.8z"/>
	<path class="st2" d="M384,52.4L248-27v-158.8l136-79.5l136,79.5V-27L384,52.4z M264-36.2l120,70.1l120-70.1v-140.4l-120-70.1
		l-120,70.1V-36.2z"/>
	<path class="st2" d="M128,52.4L-8-27v-158.8l136-79.5l136,79.5V-27L128,52.4z M8-36.2l120,70.1l120-70.1v-140.4l-120-70.1L8-176.6
		V-36.2z"/>
	<path class="st2" d="M128,564.4L-8,485V326.2l136-79.5l136,79.5V485L128,564.4z M8,475.8l120,70.1l120-70.1V335.4l-120-70.1
		L8,335.4V475.8z"/>
</g>
<g id="crazylines" class="st0">
	<rect x="487.1" y="48.5" class="st2" width="24.9" height="2.6"/>
	<rect x="475.2" y="95.9" class="st2" width="36.8" height="2.6"/>
	<rect x="500.1" y="0" class="st2" width="11.9" height="2.5"/>
	<rect x="507.3" y="219.1" class="st2" width="4.7" height="2.6"/>
	<rect x="435" y="18.8" class="st2" width="77" height="2.6"/>
	<rect x="459.8" y="57.9" class="st2" width="52.2" height="2.6"/>
	<rect x="437.3" y="116.1" class="st2" width="74.7" height="2.6"/>
	<rect x="463.4" y="464.5" class="st2" width="48.6" height="2.6"/>
	<rect x="437.3" y="497.7" class="st2" width="74.7" height="2.6"/>
	<rect x="475.2" y="483.5" class="st2" width="36.8" height="2.6"/>
	<rect x="442.1" y="447.9" class="st2" width="69.9" height="2.6"/>
	<rect x="475.2" y="386.3" class="st2" width="36.8" height="2.6"/>
	<rect x="451.5" y="417.1" class="st2" width="60.5" height="2.6"/>
	<rect x="443.3" y="164.6" class="st2" width="68.7" height="2.6"/>
	<rect x="446.8" y="189.5" class="st2" width="65.2" height="2.6"/>
	<rect x="468.2" y="203.7" class="st2" width="43.8" height="2.6"/>
	<rect x="470.5" y="131.4" class="st2" width="41.5" height="2.6"/>
	<rect x="440.9" y="232.2" class="st2" width="71.1" height="2.6"/>
	<rect x="469.3" y="246.4" class="st2" width="42.7" height="2.6"/>
	<rect x="429" y="263" class="st2" width="83" height="2.6"/>
	<rect x="449.2" y="365" class="st2" width="62.8" height="2.6"/>
	<rect x="463.4" y="334.1" class="st2" width="48.6" height="2.6"/>
	<rect x="463.4" y="296.2" class="st2" width="48.6" height="2.6"/>
	<rect x="482.4" y="315.2" class="st2" width="29.6" height="2.6"/>
	<rect x="496.6" y="279.6" class="st2" width="15.4" height="2.6"/>
	<rect x="67.4" y="40.3" class="st2" width="2.6" height="104.3"/>
	<rect x="85.2" y="61.6" class="st2" width="2.6" height="104.3"/>
	<rect x="59.1" y="130.4" class="st2" width="2.6" height="104.3"/>
	<rect x="111.3" y="132.7" class="st2" width="2.6" height="104.3"/>
	<rect x="42.5" y="83" class="st2" width="2.6" height="104.3"/>
	<rect x="127.9" y="61.6" class="st2" width="2.6" height="104.3"/>
	<rect x="167" y="61.6" class="st2" width="2.6" height="104.3"/>
	<rect x="176.5" y="87.7" class="st2" width="2.6" height="104.3"/>
	<rect x="149.2" y="22.5" class="st2" width="2.6" height="104.3"/>
	<rect x="103" y="36.7" class="st2" width="2.6" height="104.3"/>
	<rect x="8.3" y="76.9" class="st2" width="104.3" height="2.6"/>
	<rect y="48.5" class="st2" width="79.4" height="2.6"/>
	<rect y="95.9" class="st2" width="67.6" height="2.6"/>
	<rect x="93.6" y="50.8" class="st2" width="104.3" height="2.6"/>
	<rect x="56.9" y="63.9" class="st2" width="104.3" height="2.6"/>
	<rect x="83" y="122" class="st2" width="104.3" height="2.6"/>
	<rect x="35.6" y="104.2" class="st2" width="104.3" height="2.6"/>
	<rect x="272.5" y="71.1" class="st2" width="2.6" height="104.3"/>
	<rect x="254.7" y="92.5" class="st2" width="2.6" height="104.3"/>
	<rect x="297.4" y="113.8" class="st2" width="2.6" height="104.3"/>
	<rect x="306.8" y="165.9" class="st2" width="2.6" height="104.3"/>
	<rect x="316.3" y="113.8" class="st2" width="2.6" height="104.3"/>
	<rect x="212" y="92.5" class="st2" width="2.6" height="104.3"/>
	<rect x="139.7" y="116.1" class="st2" width="2.6" height="104.3"/>
	<rect x="200.2" y="46.2" class="st2" width="2.6" height="104.3"/>
	<rect x="188.3" y="22.5" class="st2" width="2.6" height="104.3"/>
	<rect x="236.9" y="58.1" class="st2" width="2.6" height="104.3"/>
	<rect x="194.4" y="103" class="st2" width="104.3" height="2.6"/>
	<rect x="135.1" y="88.8" class="st2" width="104.3" height="2.6"/>
	<rect x="197.9" y="127.9" class="st2" width="104.3" height="2.6"/>
	<rect x="157.6" y="155.2" class="st2" width="104.3" height="2.6"/>
	<rect x="219.3" y="142.1" class="st2" width="104.3" height="2.6"/>
	<rect x="502.5" y="8.3" class="st2" width="2.6" height="104.3"/>
	<rect x="469.2" y="8.3" class="st2" width="2.6" height="104.3"/>
	<rect x="413.5" y="8.3" class="st2" width="2.6" height="104.3"/>
	<rect x="435" y="18.8" class="st2" width="77" height="2.6"/>
	<rect x="424.3" y="36.6" class="st2" width="87.7" height="2.6"/>
	<rect x="395.9" y="68.7" class="st2" width="104.3" height="2.6"/>
	<rect x="339" y="59.2" class="st2" width="104.3" height="2.6"/>
	<rect x="459.9" y="57.9" class="st2" width="52.1" height="2.6"/>
	<rect x="293.8" y="17.8" class="st2" width="2.6" height="104.3"/>
	<rect x="325.8" y="39.1" class="st2" width="2.6" height="104.3"/>
	<rect x="283.1" y="60.5" class="st2" width="2.6" height="104.3"/>
	<rect x="373.2" y="34.4" class="st2" width="2.6" height="104.3"/>
	<rect x="440.8" y="62.8" class="st2" width="2.6" height="104.3"/>
	<rect x="389.8" class="st2" width="2.6" height="0"/>
	<rect x="389.8" y="0" class="st2" width="2.6" height="104.3"/>
	<rect x="355.4" y="7.1" class="st2" width="2.6" height="104.3"/>
	<rect x="283.3" y="15.3" class="st2" width="104.3" height="2.6"/>
	<rect x="334.2" y="28.3" class="st2" width="104.3" height="2.6"/>
	<rect x="275" y="40.2" class="st2" width="104.3" height="2.6"/>
	<rect x="280.9" y="74.5" class="st2" width="104.3" height="2.6"/>
	<rect x="321.2" y="109" class="st2" width="104.3" height="2.6"/>
	<rect x="347.3" y="94.7" class="st2" width="104.3" height="2.6"/>
	<rect x="259.6" y="88.8" class="st2" width="104.3" height="2.6"/>
	<rect x="222.7" y="11.9" class="st2" width="2.6" height="104.3"/>
	<rect x="210.8" y="7.1" class="st2" width="2.6" height="104.3"/>
	<rect x="168.2" y="11.9" class="st2" width="2.6" height="104.3"/>
	<rect x="12.9" y="272.6" class="st2" width="2.6" height="104.3"/>
	<rect x="9.4" y="155.3" class="st2" width="2.6" height="104.3"/>
	<rect x="17.6" y="69.9" class="st2" width="2.6" height="104.3"/>
	<rect x="3.4" y="52.2" class="st2" width="2.6" height="104.3"/>
	<rect y="0" class="st2" width="92.4" height="2.5"/>
	<rect x="47.4" y="11.7" class="st2" width="104.3" height="2.6"/>
	<rect x="8.3" y="29.5" class="st2" width="104.3" height="2.6"/>
	<rect x="164.7" y="34.2" class="st2" width="104.3" height="2.6"/>
	<rect x="129.2" y="24.8" class="st2" width="104.3" height="2.6"/>
	<rect x="143.4" y="5.8" class="st2" width="104.3" height="2.6"/>
	<rect x="181.3" y="65.1" class="st2" width="104.3" height="2.6"/>
	<rect x="192" y="170.6" class="st2" width="104.3" height="2.6"/>
	<rect x="220.5" y="184.8" class="st2" width="104.3" height="2.6"/>
	<rect x="180.2" y="201.4" class="st2" width="104.3" height="2.6"/>
	<rect x="127.9" y="244.2" class="st2" width="2.6" height="104.3"/>
	<rect x="152.8" y="286.8" class="st2" width="2.6" height="104.3"/>
	<rect x="9.5" y="259.4" class="st2" width="104.3" height="2.6"/>
	<rect x="87.7" y="287.9" class="st2" width="104.3" height="2.6"/>
	<rect x="53.3" y="300.9" class="st2" width="104.3" height="2.6"/>
	<rect x="74.7" y="315.1" class="st2" width="104.3" height="2.6"/>
	<rect x="268.9" y="181.3" class="st2" width="2.6" height="104.3"/>
	<rect x="278.4" y="222.8" class="st2" width="2.6" height="104.3"/>
	<rect x="163.4" y="190.8" class="st2" width="2.6" height="104.3"/>
	<rect x="185.9" y="152.9" class="st2" width="2.6" height="104.3"/>
	<rect x="223.9" y="212.2" class="st2" width="2.6" height="104.3"/>
	<rect x="245.2" y="173.1" class="st2" width="2.6" height="104.3"/>
	<rect x="233.4" y="170.7" class="st2" width="2.6" height="104.3"/>
	<rect x="199" y="187.3" class="st2" width="2.6" height="104.3"/>
	<rect x="176.6" y="282" class="st2" width="104.3" height="2.6"/>
	<rect x="195.6" y="291.5" class="st2" width="104.3" height="2.6"/>
	<rect x="214.5" y="272.5" class="st2" width="104.3" height="2.6"/>
	<rect x="214.5" y="234.6" class="st2" width="104.3" height="2.6"/>
	<rect x="233.5" y="253.6" class="st2" width="104.3" height="2.6"/>
	<rect x="328.3" y="234.6" class="st2" width="104.3" height="2.6"/>
	<rect x="247.7" y="218" class="st2" width="104.3" height="2.6"/>
	<rect x="437.3" y="116.1" class="st2" width="74.7" height="2.6"/>
	<rect x="323.5" y="165.8" class="st2" width="104.3" height="2.6"/>
	<rect x="309.3" y="149.3" class="st2" width="104.3" height="2.6"/>
	<rect x="115" y="261.8" class="st2" width="104.3" height="2.6"/>
	<rect x="117.3" y="247.6" class="st2" width="104.3" height="2.6"/>
	<rect x="111.4" y="324.7" class="st2" width="104.3" height="2.6"/>
	<rect x="155.1" y="148.2" class="st2" width="2.6" height="104.3"/>
	<rect x="139.7" y="123.3" class="st2" width="2.6" height="104.3"/>
	<rect x="77" y="183.6" class="st2" width="104.3" height="2.6"/>
	<rect x="27.3" y="174.1" class="st2" width="104.3" height="2.6"/>
	<rect x="39.1" y="159.9" class="st2" width="104.3" height="2.6"/>
	<rect x="29.6" y="140.9" class="st2" width="104.3" height="2.6"/>
	<rect x="96" y="140.9" class="st2" width="104.3" height="2.6"/>
	<rect x="48.5" y="310.5" class="st2" width="2.6" height="104.3"/>
	<rect x="66.2" y="331.9" class="st2" width="2.6" height="104.3"/>
	<rect x="40.2" y="400.6" class="st2" width="2.6" height="104.3"/>
	<rect x="18.8" y="384" class="st2" width="2.6" height="104.3"/>
	<rect x="92.3" y="403" class="st2" width="2.6" height="104.3"/>
	<rect x="108.9" y="331.9" class="st2" width="2.6" height="104.3"/>
	<rect x="176.5" y="272.6" class="st2" width="2.6" height="104.3"/>
	<rect x="414.7" y="426.7" class="st2" width="2.6" height="85.3"/>
	<rect x="434.8" y="336.6" class="st2" width="2.6" height="104.3"/>
	<rect x="308.1" y="453.8" class="st2" width="104.3" height="2.6"/>
	<rect x="340.1" y="483.4" class="st2" width="104.3" height="2.6"/>
	<rect x="321.2" y="497.6" class="st2" width="104.3" height="2.6"/>
	<rect x="349.6" y="471.6" class="st2" width="104.3" height="2.6"/>
	<rect x="450.2" y="373.3" class="st2" width="2.6" height="104.3"/>
	<rect x="425.4" y="416" class="st2" width="2.6" height="96"/>
	<rect x="344.8" y="340.2" class="st2" width="2.6" height="104.3"/>
	<rect x="332.9" y="359.1" class="st2" width="2.6" height="104.3"/>
	<rect x="318.7" y="400.6" class="st2" width="2.6" height="104.3"/>
	<rect x="476.3" y="386.4" class="st2" width="2.6" height="104.3"/>
	<rect x="488.2" y="343.7" class="st2" width="2.6" height="104.3"/>
	<rect x="504.8" y="327.1" class="st2" width="2.6" height="104.3"/>
	<rect x="463.4" y="464.5" class="st2" width="48.6" height="2.6"/>
	<rect x="437.3" y="497.7" class="st2" width="74.7" height="2.6"/>
	<rect x="475.3" y="483.5" class="st2" width="36.7" height="2.6"/>
	<rect x="442.1" y="447.9" class="st2" width="69.9" height="2.6"/>
	<rect x="420.7" y="400.5" class="st2" width="91.3" height="2.6"/>
	<rect x="475.3" y="386.3" class="st2" width="36.7" height="2.6"/>
	<rect x="451.6" y="417.1" class="st2" width="60.4" height="2.6"/>
	<rect x="463.3" y="455.1" class="st2" width="2.6" height="56.9"/>
	<rect x="494.1" y="436.1" class="st2" width="2.6" height="75.9"/>
	<rect x="24.9" y="342.4" class="st2" width="104.3" height="2.6"/>
	<rect x="58.1" y="479.9" class="st2" width="104.3" height="2.6"/>
	<rect x="35.6" y="360.2" class="st2" width="104.3" height="2.6"/>
	<rect x="64" y="392.2" class="st2" width="104.3" height="2.6"/>
	<rect x="142.2" y="370.9" class="st2" width="104.3" height="2.6"/>
	<rect x="5.9" y="372" class="st2" width="104.3" height="2.6"/>
	<rect x="124.3" y="369.8" class="st2" width="2.6" height="104.3"/>
	<rect x="125.6" y="351.9" class="st2" width="104.3" height="2.6"/>
	<rect x="138.7" y="425.4" class="st2" width="104.3" height="2.6"/>
	<rect x="150.5" y="437.3" class="st2" width="104.3" height="2.6"/>
	<rect x="139.9" y="401.7" class="st2" width="104.3" height="2.6"/>
	<rect x="173" y="382.7" class="st2" width="104.3" height="2.6"/>
	<rect x="136.2" y="418.4" class="st2" width="2.6" height="93.6"/>
	<rect x="87.6" y="270.2" class="st2" width="2.6" height="104.3"/>
	<rect x="75.7" y="232.3" class="st2" width="2.6" height="104.3"/>
	<rect x="97.1" y="211" class="st2" width="2.6" height="104.3"/>
	<rect x="59.1" y="222.8" class="st2" width="2.6" height="104.3"/>
	<rect x="33.1" y="229.9" class="st2" width="2.6" height="104.3"/>
	<rect x="47.3" y="196.7" class="st2" width="2.6" height="104.3"/>
	<rect x="58.1" y="453.8" class="st2" width="104.3" height="2.6"/>
	<rect x="7.1" y="442" class="st2" width="104.3" height="2.6"/>
	<rect x="20.1" y="430.1" class="st2" width="104.3" height="2.6"/>
	<rect x="208.5" y="355.5" class="st2" width="2.6" height="104.3"/>
	<rect x="187.1" y="305.8" class="st2" width="2.6" height="104.3"/>
	<rect x="182.4" y="424.3" class="st2" width="2.6" height="87.7"/>
	<rect x="234.6" y="426.7" class="st2" width="2.6" height="85.3"/>
	<rect x="165.8" y="376.9" class="st2" width="2.6" height="104.3"/>
	<rect x="251.1" y="355.5" class="st2" width="2.6" height="104.3"/>
	<rect x="219.1" y="418.4" class="st2" width="2.6" height="93.6"/>
	<rect x="197.8" y="389.9" class="st2" width="2.6" height="104.3"/>
	<rect x="200.3" y="503.6" class="st2" width="104.3" height="2.6"/>
	<rect x="214.5" y="487" class="st2" width="104.3" height="2.6"/>
	<rect x="263" y="410.1" class="st2" width="2.6" height="101.9"/>
	<rect x="229.8" y="322.4" class="st2" width="2.6" height="104.3"/>
	<rect x="389.8" y="410.1" class="st2" width="2.6" height="101.9"/>
	<rect x="340" y="467" class="st2" width="2.6" height="45"/>
	<rect x="241.7" y="289.2" class="st2" width="2.6" height="104.3"/>
	<rect x="200.3" y="477.5" class="st2" width="104.3" height="2.6"/>
	<rect x="150.5" y="468" class="st2" width="104.3" height="2.6"/>
	<rect x="93.6" y="491.7" class="st2" width="104.3" height="2.6"/>
	<rect x="55.7" y="501.2" class="st2" width="104.3" height="2.6"/>
	<rect x="162.4" y="453.8" class="st2" width="104.3" height="2.6"/>
	<rect x="10.7" y="411.1" class="st2" width="104.3" height="2.6"/>
	<rect x="77" y="411.1" class="st2" width="104.3" height="2.6"/>
	<rect x="117.3" y="218" class="st2" width="104.3" height="2.6"/>
	<rect x="55.7" y="197.8" class="st2" width="104.3" height="2.6"/>
	<rect x="47.4" y="235.7" class="st2" width="104.3" height="2.6"/>
	<rect y="219.1" class="st2" width="99.6" height="2.6"/>
	<rect x="334.1" y="123.3" class="st2" width="2.6" height="104.3"/>
	<rect x="360.2" y="194.4" class="st2" width="2.6" height="104.3"/>
	<rect x="374.3" y="142.2" class="st2" width="2.6" height="104.3"/>
	<rect x="415.9" y="123.3" class="st2" width="2.6" height="104.3"/>
	<rect x="425.4" y="149.3" class="st2" width="2.6" height="104.3"/>
	<rect x="398.1" y="84.2" class="st2" width="2.6" height="104.3"/>
	<rect x="344.8" y="98.4" class="st2" width="2.6" height="104.3"/>
	<rect x="331.9" y="183.6" class="st2" width="104.3" height="2.6"/>
	<rect x="285.5" y="343.7" class="st2" width="2.6" height="104.3"/>
	<rect x="295" y="395.9" class="st2" width="2.6" height="104.3"/>
	<rect x="271.3" y="322.4" class="st2" width="2.6" height="104.3"/>
	<rect x="304.5" y="343.7" class="st2" width="2.6" height="104.3"/>
	<rect x="460.9" y="154.1" class="st2" width="2.6" height="104.3"/>
	<rect x="388.6" y="177.8" class="st2" width="2.6" height="104.3"/>
	<rect x="449.1" y="107.9" class="st2" width="2.6" height="104.3"/>
	<rect x="475.1" y="74.7" class="st2" width="2.6" height="104.3"/>
	<rect x="485.9" y="90.1" class="st2" width="2.6" height="104.3"/>
	<rect x="500" y="124.4" class="st2" width="2.6" height="104.3"/>
	<rect x="443.3" y="164.6" class="st2" width="68.7" height="2.6"/>
	<rect x="393.5" y="143.3" class="st2" width="104.3" height="2.6"/>
	<rect x="353.2" y="126.7" class="st2" width="104.3" height="2.6"/>
	<rect x="384" y="81.6" class="st2" width="104.3" height="2.6"/>
	<rect x="446.8" y="189.5" class="st2" width="65.2" height="2.6"/>
	<rect x="406.5" y="216.8" class="st2" width="104.3" height="2.6"/>
	<rect x="468.2" y="203.7" class="st2" width="43.8" height="2.6"/>
	<rect x="296.2" y="247.7" class="st2" width="2.6" height="104.3"/>
	<rect x="314" y="269" class="st2" width="2.6" height="104.3"/>
	<rect x="423" y="290.4" class="st2" width="2.6" height="104.3"/>
	<rect x="331.7" y="244.2" class="st2" width="2.6" height="104.3"/>
	<rect x="269" y="304.5" class="st2" width="104.3" height="2.6"/>
	<rect x="309.3" y="338.9" class="st2" width="104.3" height="2.6"/>
	<rect x="470.5" y="131.4" class="st2" width="41.5" height="2.6"/>
	<rect x="440.9" y="232.2" class="st2" width="71.1" height="2.6"/>
	<rect x="469.3" y="246.4" class="st2" width="42.7" height="2.6"/>
	<rect x="429" y="263" class="st2" width="83" height="2.6"/>
	<rect x="376.8" y="305.8" class="st2" width="2.6" height="104.3"/>
	<rect x="401.7" y="348.4" class="st2" width="2.6" height="104.3"/>
	<rect x="373.2" y="403" class="st2" width="2.6" height="104.3"/>
	<rect x="356.6" y="386.4" class="st2" width="2.6" height="104.3"/>
	<rect x="323.6" y="376.7" class="st2" width="104.3" height="2.6"/>
	<rect x="266.7" y="357.8" class="st2" width="104.3" height="2.6"/>
	<rect x="193.2" y="336.5" class="st2" width="104.3" height="2.6"/>
	<rect x="368.5" y="226.4" class="st2" width="2.6" height="104.3"/>
	<rect x="276" y="452.7" class="st2" width="2.6" height="59.3"/>
	<rect x="460.9" y="333" class="st2" width="2.6" height="104.3"/>
	<rect x="412.3" y="252.4" class="st2" width="2.6" height="104.3"/>
	<rect x="434.8" y="214.5" class="st2" width="2.6" height="104.3"/>
	<rect x="387.4" y="295.1" class="st2" width="2.6" height="104.3"/>
	<rect x="472.8" y="273.8" class="st2" width="2.6" height="104.3"/>
	<rect x="494.1" y="234.7" class="st2" width="2.6" height="104.3"/>
	<rect x="482.2" y="232.3" class="st2" width="2.6" height="104.3"/>
	<rect x="447.9" y="248.9" class="st2" width="2.6" height="104.3"/>
	<rect x="425.5" y="343.6" class="st2" width="86.5" height="2.6"/>
	<rect x="449.2" y="365" class="st2" width="62.8" height="2.6"/>
	<rect x="463.4" y="334.1" class="st2" width="48.6" height="2.6"/>
	<rect x="463.4" y="296.2" class="st2" width="48.6" height="2.6"/>
	<rect x="482.4" y="315.2" class="st2" width="29.6" height="2.6"/>
	<rect x="496.6" y="279.6" class="st2" width="15.4" height="2.6"/>
	<rect x="271.4" y="438.4" class="st2" width="104.3" height="2.6"/>
	<rect x="302.2" y="419.5" class="st2" width="104.3" height="2.6"/>
	<rect x="297.5" y="386.3" class="st2" width="104.3" height="2.6"/>
	<rect x="186.1" y="315.2" class="st2" width="104.3" height="2.6"/>
	<rect x="363.8" y="323.4" class="st2" width="104.3" height="2.6"/>
	<rect x="366.2" y="309.2" class="st2" width="104.3" height="2.6"/>
	<rect x="404" y="209.8" class="st2" width="2.6" height="104.3"/>
	<rect x="388.6" y="184.9" class="st2" width="2.6" height="104.3"/>
	<rect x="343.6" y="225.2" class="st2" width="2.6" height="104.3"/>
	<rect x="325.9" y="264.2" class="st2" width="104.3" height="2.6"/>
	<rect x="344.9" y="202.5" class="st2" width="104.3" height="2.6"/>
	<rect x="366.2" y="279.6" class="st2" width="104.3" height="2.6"/>
	<rect x="487.1" y="48.5" class="st2" width="24.9" height="2.6"/>
	<rect x="475.3" y="95.9" class="st2" width="36.7" height="2.6"/>
	<rect y="18.8" class="st2" width="27.3" height="2.6"/>
	<rect y="57.9" class="st2" width="52.2" height="2.6"/>
	<rect y="116.1" class="st2" width="29.6" height="2.6"/>
	<rect y="464.5" class="st2" width="55.7" height="2.6"/>
	<rect y="497.7" class="st2" width="29.6" height="2.6"/>
	<rect y="483.5" class="st2" width="67.6" height="2.6"/>
	<rect y="447.9" class="st2" width="34.4" height="2.6"/>
	<rect y="386.3" class="st2" width="67.6" height="2.6"/>
	<rect y="417.1" class="st2" width="43.8" height="2.6"/>
	<rect y="164.6" class="st2" width="35.6" height="2.6"/>
	<rect y="189.5" class="st2" width="39.1" height="2.6"/>
	<rect y="203.7" class="st2" width="60.4" height="2.6"/>
	<rect y="131.4" class="st2" width="62.8" height="2.6"/>
	<rect y="232.2" class="st2" width="33.2" height="2.6"/>
	<rect y="246.4" class="st2" width="61.6" height="2.6"/>
	<rect y="263" class="st2" width="21.3" height="2.6"/>
	<rect y="365" class="st2" width="41.5" height="2.6"/>
	<rect y="334.1" class="st2" width="55.7" height="2.6"/>
	<rect y="296.2" class="st2" width="55.7" height="2.6"/>
	<rect y="315.2" class="st2" width="74.7" height="2.6"/>
	<rect y="279.6" class="st2" width="88.9" height="2.6"/>
	<rect x="91.1" y="461" class="st2" width="2.6" height="51"/>
	<rect x="72.2" y="444.4" class="st2" width="2.6" height="67.6"/>
	<rect x="449.1" y="485.9" class="st2" width="2.6" height="26.1"/>
	<rect x="431.3" y="481.2" class="st2" width="2.6" height="30.8"/>
	<rect x="265.4" y="485.9" class="st2" width="2.6" height="26.1"/>
	<rect x="487" y="485.9" class="st2" width="2.6" height="26.1"/>
	<rect x="305.7" y="472.9" class="st2" width="2.6" height="39.1"/>
	<rect x="118.4" y="481.2" class="st2" width="2.6" height="30.8"/>
	<rect x="11.7" y="480" class="st2" width="2.6" height="32"/>
	<rect x="47.3" y="465.8" class="st2" width="2.6" height="46.2"/>
	<rect x="246.4" y="485.9" class="st2" width="2.6" height="26.1"/>
	<rect x="414.7" y="426.7" class="st2" width="2.6" height="85.3"/>
	<rect x="234.6" y="426.7" class="st2" width="2.6" height="85.3"/>
	<rect y="18.8" class="st2" width="27.3" height="2.6"/>
	<rect y="36.6" class="st2" width="16.6" height="2.6"/>
	<rect y="57.9" class="st2" width="52.2" height="2.6"/>
	<rect y="116.1" class="st2" width="29.6" height="2.6"/>
	<rect y="464.5" class="st2" width="55.7" height="2.6"/>
	<rect y="497.7" class="st2" width="29.6" height="2.6"/>
	<rect y="483.5" class="st2" width="67.6" height="2.6"/>
	<rect y="447.9" class="st2" width="34.4" height="2.6"/>
	<rect y="400.5" class="st2" width="13" height="2.6"/>
	<rect y="386.3" class="st2" width="67.6" height="2.6"/>
	<rect y="417.1" class="st2" width="43.8" height="2.6"/>
	<rect y="164.6" class="st2" width="35.6" height="2.6"/>
	<rect y="189.5" class="st2" width="39.1" height="2.6"/>
	<rect y="203.7" class="st2" width="60.5" height="2.6"/>
	<rect y="131.4" class="st2" width="62.8" height="2.6"/>
	<rect y="232.2" class="st2" width="33.2" height="2.6"/>
	<rect y="246.4" class="st2" width="61.6" height="2.6"/>
	<rect y="263" class="st2" width="21.3" height="2.6"/>
	<rect y="343.6" class="st2" width="17.8" height="2.6"/>
	<rect y="365" class="st2" width="41.5" height="2.6"/>
	<rect y="334.1" class="st2" width="55.7" height="2.6"/>
	<rect y="296.2" class="st2" width="55.7" height="2.6"/>
	<rect y="315.2" class="st2" width="74.7" height="2.6"/>
	<rect y="279.6" class="st2" width="88.9" height="2.6"/>
	<rect y="48.5" class="st2" width="79.4" height="2.6"/>
	<rect y="95.9" class="st2" width="67.6" height="2.6"/>
	<rect x="414.7" y="0" class="st2" width="2.6" height="19"/>
	<rect x="425.4" y="0" class="st2" width="2.6" height="8.3"/>
	<rect x="463.3" y="0" class="st2" width="2.6" height="47.4"/>
	<rect x="494.1" y="0" class="st2" width="2.6" height="28.4"/>
	<rect x="136.2" y="0" class="st2" width="2.6" height="10.7"/>
	<rect x="182.4" y="0" class="st2" width="2.6" height="16.6"/>
	<rect x="234.6" y="0" class="st2" width="2.6" height="19"/>
	<rect x="219.1" y="0" class="st2" width="2.6" height="10.7"/>
	<rect x="263" y="0" class="st2" width="2.6" height="2.4"/>
	<rect x="389.8" y="0" class="st2" width="2.6" height="2.4"/>
	<rect x="340" y="0" class="st2" width="2.6" height="59.3"/>
	<rect x="276" y="0" class="st2" width="2.6" height="45"/>
	<rect x="91.1" y="0" class="st2" width="2.6" height="53.3"/>
	<rect x="72.2" y="0" class="st2" width="2.6" height="36.7"/>
	<rect x="449.1" y="0" class="st2" width="2.6" height="78.2"/>
	<rect x="431.3" y="0" class="st2" width="2.6" height="73.5"/>
	<rect x="265.4" y="0" class="st2" width="2.6" height="78.2"/>
	<rect x="487" y="0" class="st2" width="2.6" height="78.2"/>
	<rect x="305.7" y="0" class="st2" width="2.6" height="65.2"/>
	<rect x="118.4" y="0" class="st2" width="2.6" height="73.5"/>
	<rect x="11.7" y="0" class="st2" width="2.6" height="72.3"/>
	<rect x="47.3" y="0" class="st2" width="2.6" height="58.1"/>
	<rect x="246.4" y="0" class="st2" width="2.6" height="78.2"/>
	<rect x="414.7" y="0" class="st2" width="2.6" height="19"/>
	<rect x="234.6" y="0" class="st2" width="2.6" height="19"/>
</g>
<g id="tinydots" class="st0">
	<circle class="st1" cx="102.4" cy="70.2" r="32.2"/>
	<circle class="st1" cx="204.8" cy="172.6" r="32.2"/>
	<circle class="st1" cx="307.2" cy="275" r="32.2"/>
	<circle class="st1" cx="409.6" cy="377.4" r="32.2"/>
	<circle class="st1" cx="512" cy="479.8" r="32.2"/>
	<circle class="st1" cx="0" cy="479.8" r="32.2"/>
</g>
</svg>
