<svg version="1.1" id="Layer_1" xmlns="http://www.w3.org/2000/svg" xmlns:xlink="http://www.w3.org/1999/xlink" x="0px" y="0px"
	 viewBox="0 0 72 72" style="enable-background:new 0 0 72 72;" xml:space="preserve">
<path d="M28.3,22.1l-1,0.2c-0.2-1.2-0.8-2-1.5-2.4c-0.8-0.4-1.8-0.2-2.9,0.4c-1.1,0.6-2.5,1.3-3.7,0.7c-0.9-0.4-1.6-1.5-1.9-3.3
	c-0.2-0.9-0.5-1.5-1.1-1.8c-1.1-0.6-2.7,0.1-2.7,0.1l-0.4-0.9c0.1,0,2-0.9,3.5-0.1c0.9,0.4,1.4,1.3,1.6,2.5c0.3,1.4,0.7,2.3,1.3,2.6
	c0.6,0.3,1.5,0.1,2.8-0.7c1.3-0.8,2.7-0.9,3.8-0.4C27,19.3,27.9,20.2,28.3,22.1z M63.3,29.7c-0.6,0-1.3-0.4-1.8-1.1
	c-1.1-1.4-2.2-2.1-3.2-2.1c-1.3,0-2.3,1.3-3,2.3c-0.7,1-1.5,1.6-2.4,1.6c-0.8,0-1.7-0.5-2.5-1.5l-0.8,0.6c1.2,1.5,2.3,1.9,3.2,1.9
	c0,0,0.1,0,0.1,0c1.2,0,2.3-0.8,3.2-2.1c0.8-1.2,1.5-1.8,2.2-1.9c0.7,0,1.5,0.5,2.3,1.7c0.8,1,1.6,1.5,2.6,1.5
	c1.7,0,3.1-1.6,3.1-1.7l-0.8-0.6C65.6,28.4,64.5,29.8,63.3,29.7z M39.2,21c-0.4-1.3-1.8-1.9-3-2.3c-1.1-0.4-1.9-1.1-2.2-1.9
	c-0.2-0.8,0-1.8,0.8-2.7L34,13.5c-1.2,1.6-1.2,2.9-0.9,3.6c0.4,1.2,1.4,2.1,2.8,2.5c1.4,0.5,2.2,1,2.4,1.6c0.2,0.6-0.2,1.5-1,2.7
	c-0.8,1-1,2-0.8,2.9c0.4,1.7,2.4,2.5,2.4,2.6l0.4-0.9c0,0-1.6-0.7-1.9-1.9c-0.2-0.6,0-1.3,0.6-2.1C39.1,23.2,39.5,22,39.2,21z
	 M48.3,11c0.5,1.1,0.6,2.1,0.2,2.8c-0.4,0.8-1.3,1.3-2.5,1.4c-1.2,0.2-2.8,0.5-3.4,1.6c-0.5,0.9-0.3,2.1,0.5,3.8
	c0.4,0.8,0.5,1.6,0.2,2.1c-0.5,1.1-2.2,1.5-2.2,1.5l0.2,1c0.1,0,2.1-0.5,2.9-2c0.4-0.9,0.4-1.9-0.2-3c-0.6-1.3-0.8-2.3-0.5-2.8
	c0.3-0.6,1.1-0.9,2.6-1.1c1.5-0.2,2.7-0.9,3.3-1.9c0.4-0.7,0.7-2-0.2-3.8L48.3,11z M62.2,1.1c0.5,1.1,0.6,2.1,0.2,2.8
	c-0.4,0.8-1.3,1.3-2.5,1.4c-1.2,0.1-2.8,0.5-3.4,1.6c-0.5,0.9-0.3,2.1,0.5,3.8c0.4,0.8,0.5,1.6,0.2,2.1C56.7,14,55,14.4,55,14.4
	l0.2,1c0.1,0,2.1-0.5,2.9-2c0.4-0.9,0.4-1.9-0.2-3C57.3,9,57.1,8,57.4,7.4c0.3-0.6,1.1-0.9,2.6-1.1c1.5-0.2,2.7-0.9,3.3-1.9
	c0.4-0.7,0.7-2-0.2-3.8L62.2,1.1z M30.5,19c0.8,0.9,1.2,1.8,1,2.7c-0.2,0.8-0.9,1.6-2,2.1c-1.2,0.5-2.5,1.2-2.8,2.5
	c-0.2,1,0.3,2.1,1.5,3.5c0.6,0.7,0.9,1.4,0.8,2c-0.2,1.2-1.7,2-1.7,2.1l0.5,0.9c0.1,0,1.9-1,2.2-2.8c0.2-1-0.2-1.9-1-2.9
	c-1-1.1-1.4-1.9-1.2-2.6c0.1-0.6,0.8-1.2,2.2-1.8c1.4-0.6,2.4-1.6,2.6-2.8c0.2-0.8,0.1-2.1-1.2-3.6L30.5,19z M9.9,23.1
	c0,0,0.5,1.6-0.2,2.7c-0.4,0.5-1,0.8-2,0.9c-1.8,0.1-3,0.6-3.5,1.5c-0.7,1.1-0.2,2.6,0.3,3.7c0.5,1.1,0.5,2.2,0,2.9
	C4.2,35.5,3.3,36,2.1,36l0.1,1c2-0.1,2.9-1,3.3-1.7c0.6-1,0.6-2.4,0-3.8c-0.6-1.4-0.7-2.3-0.4-2.8c0.3-0.6,1.3-0.9,2.7-1
	c1.3-0.1,2.2-0.5,2.7-1.3c1-1.4,0.3-3.5,0.3-3.5L9.9,23.1z M13.2,26.7l-0.3-1c-1.9,0.5-2.7,1.5-3,2.3c-0.4,1.1-0.2,2.5,0.7,3.8
	c0.8,1.2,1.1,2.1,0.9,2.7c-0.2,0.6-1.1,1.1-2.5,1.5c-1.2,0.3-2,0.9-2.4,1.8c-0.7,1.6,0.3,3.5,0.4,3.5L8,40.9c0,0-0.8-1.5-0.3-2.7
	c0.3-0.6,0.8-1,1.7-1.3c1.8-0.5,2.8-1.2,3.1-2.1c0.5-1.2-0.3-2.6-1-3.6c-0.7-1-0.9-2-0.6-2.8C11.2,27.6,12,27,13.2,26.7z M31.8,10.1
	c-1.1,0.4-1.9,1.5-2.3,3c-0.3,1.4-0.8,2.2-1.4,2.5c-0.6,0.2-1.6,0-2.8-0.8c-1.1-0.7-2.1-0.9-3-0.6c-1.6,0.6-2.3,2.6-2.4,2.6l0.9,0.3
	c0,0,0.6-1.6,1.8-2c0.6-0.2,1.3-0.1,2.1,0.4c1.5,1,2.7,1.3,3.7,0.9c1.2-0.5,1.7-1.9,2-3.2c0.3-1.2,0.9-2,1.7-2.3
	c0.8-0.3,1.8-0.1,2.8,0.5l0.5-0.8C33.8,9.6,32.6,9.7,31.8,10.1z M19,30.5l-0.2-1c-2,0.4-2.8,1.4-3.1,2.1c-0.5,1.1-0.3,2.4,0.4,3.8
	c0.8,1.3,1,2.2,0.7,2.8c-0.3,0.6-1.1,1.1-2.6,1.3c-1.2,0.2-2.1,0.8-2.5,1.7c-0.8,1.6,0.1,3.5,0.1,3.5l0.9-0.4c0,0-0.7-1.6-0.1-2.7
	c0.3-0.6,0.9-1,1.8-1.1c1.8-0.3,2.9-1,3.3-1.9c0.5-1.2-0.1-2.6-0.8-3.7c-0.6-1-0.8-2.1-0.4-2.9C17,31.2,17.8,30.7,19,30.5z M23.2,28
	c-1-0.6-1.7-1.4-1.8-2.3c-0.1-0.8,0.4-1.7,1.3-2.5l-0.7-0.8c-1.5,1.3-1.7,2.6-1.6,3.4c0.1,1.2,0.9,2.3,2.3,3c1.3,0.7,1.9,1.4,2,2
	c0.1,0.7-0.4,1.5-1.5,2.4c-0.9,0.8-1.4,1.7-1.3,2.7c0.1,1.7,1.8,3,1.9,3l0.6-0.8c0,0-1.4-1-1.5-2.2c0-0.6,0.3-1.3,1-1.9
	c1.4-1.2,2-2.3,1.9-3.3C25.6,29.5,24.3,28.6,23.2,28z M20.2,50c-1,0.7-1.5,2-1.5,3.5c0,1.5-0.2,2.4-0.7,2.7
	c-0.5,0.4-1.5,0.4-2.9-0.1c-1.2-0.4-2.2-0.3-3,0.2c-1.4,1-1.6,3.1-1.6,3.2l1,0.1c0,0,0.2-1.7,1.2-2.4c0.5-0.4,1.3-0.4,2.2-0.1
	c1.7,0.6,3,0.6,3.8-0.1c1.1-0.8,1.2-2.3,1.1-3.6c0-1.2,0.4-2.2,1.1-2.7c0.7-0.5,1.7-0.6,2.8-0.2l0.3-0.9
	C22.1,49.1,20.9,49.5,20.2,50z M27.8,55.2c-0.5,0.4-1.3,0.4-2.2,0.1c-1.7-0.6-3-0.6-3.8,0c-1.1,0.8-1.2,2.3-1.2,3.6
	c0,1.2-0.4,2.2-1.1,2.7c-0.7,0.5-1.7,0.5-2.8,0.1l-0.3,0.9c0.7,0.2,1.3,0.3,1.8,0.3c0.9,0,1.5-0.3,2-0.6c1-0.7,1.5-1.9,1.5-3.5
	c0-1.5,0.2-2.4,0.8-2.7c0.5-0.4,1.5-0.3,2.9,0.1c1.2,0.4,2.2,0.4,3-0.2c1.5-0.9,1.7-3,1.7-3.1l-1-0.1C29,52.8,28.8,54.5,27.8,55.2z
	 M17.1,25.9c-0.4-0.5-0.5-1.2-0.3-2.1c0.4-1.8,0.2-3-0.5-3.8c-0.9-1-2.4-0.9-3.7-0.7c-1.2,0.2-2.2-0.1-2.8-0.7C9.2,18,9,17,9.3,15.8
	l-1-0.2c-0.4,2,0.2,3.1,0.8,3.7c0.8,0.9,2.1,1.3,3.7,1c1.5-0.2,2.4-0.1,2.8,0.4c0.5,0.5,0.5,1.5,0.3,2.9c-0.3,1.2-0.1,2.2,0.6,3
	c1,1.2,2.8,1.2,3.2,1.2c0.1,0,0.1,0,0.1,0l0-1C19.6,26.8,17.9,26.9,17.1,25.9z M37.9,40.1c-0.4-0.8-0.3-1.8,0.2-2.9
	c0.6-1.1,1.1-2.6,0.5-3.7c-0.5-0.9-1.6-1.5-3.4-1.7c-0.9-0.1-1.6-0.4-1.9-1c-0.6-1.1-0.1-2.7-0.1-2.7l-0.9-0.4
	c0,0.1-0.8,2.1,0.1,3.5c0.5,0.8,1.4,1.3,2.6,1.5c1.4,0.2,2.3,0.6,2.6,1.1c0.3,0.6,0.2,1.5-0.5,2.8c-0.7,1.4-0.7,2.7-0.2,3.8
	c0.4,0.7,1.3,1.6,3.3,1.9l0.1-1C39.1,41.3,38.3,40.8,37.9,40.1z M15.8,49.9c-0.8-0.2-1.6-0.9-2-2.1c-0.5-1.2-1.2-2.5-2.5-2.8
	c-1-0.2-2.2,0.2-3.5,1.4c-0.7,0.6-1.4,0.9-2,0.8c-1.2-0.2-2-1.7-2-1.7l-0.9,0.5c0,0.1,1,1.9,2.7,2.3c1,0.2,1.9-0.2,2.9-1
	c1.1-1,2-1.4,2.6-1.2c0.6,0.2,1.2,0.9,1.8,2.2c0.6,1.4,1.6,2.4,2.7,2.7c0.2,0,0.4,0.1,0.7,0.1c0.8,0,1.8-0.3,2.9-1.3l-0.7-0.7
	C17.6,49.8,16.6,50.1,15.8,49.9z M55,70.8c0.3-0.8,1.1-1.3,2.4-1.6l-0.2-1c-1.9,0.4-2.7,1.4-3.1,2.2c-0.2,0.5-0.3,1-0.2,1.6h1
	C54.8,71.6,54.8,71.2,55,70.8z M64.2,10.3c0,0,1,1.4,0.7,2.6c-0.2,0.6-0.7,1.1-1.6,1.5c-1.7,0.7-2.6,1.5-2.8,2.5
	c-0.3,1.3,0.6,2.5,1.5,3.5c0.8,0.9,1.1,1.9,0.9,2.7c-0.2,0.8-0.9,1.5-2.1,2l0.4,0.9c1.8-0.8,2.5-1.9,2.6-2.7
	c0.3-1.2-0.1-2.5-1.2-3.6c-1-1.1-1.4-1.9-1.2-2.6c0.2-0.7,0.9-1.3,2.2-1.8c1.2-0.5,1.9-1.2,2.2-2.1c0.5-1.7-0.8-3.4-0.8-3.5
	L64.2,10.3z M60.1,14.8l-0.2-1c-0.1,0-2.2,0.5-2.9,2c-0.4,0.9-0.4,1.9,0.2,3c0.6,1.3,0.8,2.3,0.5,2.9c-0.3,0.6-1.2,0.9-2.6,1.1
	c-1.5,0.2-2.7,0.8-3.3,1.9c-0.4,0.7-0.7,2,0.2,3.8l0.9-0.4c-0.5-1.1-0.6-2.1-0.2-2.8c0.4-0.8,1.3-1.3,2.5-1.4
	c1.2-0.1,2.8-0.4,3.4-1.6c0.5-0.9,0.4-2.1-0.4-3.8c-0.4-0.8-0.5-1.6-0.2-2.1C58.4,15.1,60,14.8,60.1,14.8z M23.3,8.3
	c-1.5,0.1-2.4-0.1-2.8-0.7c-0.4-0.5-0.4-1.5,0-2.9c0.4-1.2,0.3-2.2-0.3-3c-1-1.4-3.1-1.5-3.2-1.5l0,1c0,0,1.7,0.1,2.4,1.1
	c0.4,0.5,0.4,1.3,0.2,2.1c-0.5,1.7-0.5,3,0.2,3.8c0.8,1,2.3,1.1,3.6,1c1.2-0.1,2.2,0.3,2.7,1c0.5,0.7,0.6,1.7,0.2,2.8l1,0.3
	c0.6-1.9,0.1-3.1-0.4-3.7C26.2,8.7,24.9,8.3,23.3,8.3z M37.4,13.7c-0.3-0.6-0.2-1.3,0.3-2.1c0.8-1.6,1-2.8,0.6-3.7
	c-0.6-1.2-2.1-1.5-3.3-1.7c-1.2-0.2-2.1-0.7-2.5-1.5c-0.4-0.8-0.3-1.7,0.3-2.8l-0.9-0.5c-0.9,1.8-0.7,3-0.3,3.8
	c0.5,1.1,1.7,1.8,3.2,2c1.5,0.2,2.3,0.6,2.6,1.2c0.3,0.6,0.1,1.6-0.6,2.8c-0.6,1.1-0.7,2.1-0.3,3c0.7,1.6,2.8,2.1,2.8,2.1l0.2-1
	C39.5,15.2,37.9,14.8,37.4,13.7z M14.6,7.7c-0.8,0.5-1.3,1.5-1.3,2.7c-0.1,1.4-0.4,2.4-1,2.7c-0.6,0.3-1.5,0.2-2.8-0.4
	c-1.4-0.6-2.8-0.6-3.8,0C5,13.3,4.1,14.2,4,16.2l1,0.1c0.1-1.2,0.5-2.1,1.2-2.6c0.7-0.5,1.8-0.4,2.9,0c1.2,0.5,2.6,1,3.7,0.3
	c0.9-0.5,1.4-1.7,1.5-3.5c0.1-0.9,0.4-1.6,0.9-2c1-0.7,2.7-0.2,2.7-0.2l0.3-1C18.1,7.4,16.1,6.8,14.6,7.7z M2.7,69.4
	c0.4-0.5,1.3-0.8,2.8-0.8c1.3,0,2.2-0.4,2.8-1.1c1.1-1.4,0.6-3.4,0.6-3.5l-1,0.2c0,0,0.4,1.7-0.4,2.6c-0.4,0.5-1.1,0.7-2,0.7
	c-1.8,0-3,0.4-3.6,1.2c-0.7,0.9-0.5,2.1-0.2,3.2h1.1C2.4,70.8,2.3,69.9,2.7,69.4z M67.7,34.7c-0.7,0.1-1.3-0.3-1.9-0.9
	c-1.2-1.3-2.3-1.9-3.4-1.8c-1.3,0.2-2.1,1.5-2.7,2.6c-0.6,1.1-1.4,1.7-2.2,1.9c-0.8,0.1-1.7-0.3-2.6-1.2l-0.7,0.7
	c1.1,1.2,2.2,1.6,3,1.6c0.1,0,0.3,0,0.4,0c1.2-0.2,2.3-1,3-2.4c0.7-1.3,1.3-2,2-2.1c0.7-0.1,1.5,0.4,2.5,1.5
	c0.9,0.9,1.8,1.3,2.8,1.3c1.7-0.1,2.9-1.9,2.9-2l-0.8-0.5C69.9,33.2,68.9,34.6,67.7,34.7z M49.9,1.7c0,0,0.4,1.7-0.4,2.6
	c-0.4,0.5-1.1,0.8-2,0.7c-1.8,0-3,0.4-3.6,1.2c-0.8,1.1-0.4,2.6,0,3.7c0.4,1.1,0.3,2.2-0.2,2.9c-0.5,0.7-1.4,1.1-2.7,1l0,1
	c0,0,0.1,0,0.1,0c1.9,0,2.9-0.8,3.4-1.4c0.7-1,0.8-2.3,0.3-3.8c-0.5-1.4-0.5-2.3-0.1-2.8c0.4-0.5,1.4-0.8,2.8-0.8
	c1.3,0,2.2-0.4,2.8-1.1c1.1-1.4,0.6-3.4,0.6-3.5L49.9,1.7z M51,18l-0.2-1c-2,0.3-2.8,1.3-3.2,2c-0.5,1.1-0.4,2.4,0.3,3.8
	c0.7,1.3,0.9,2.2,0.6,2.8c-0.3,0.6-1.2,1-2.6,1.2c-1.2,0.2-2.1,0.7-2.6,1.6c-0.8,1.5,0,3.5,0,3.6l0.9-0.4c0,0-0.7-1.6,0-2.7
	c0.3-0.6,0.9-0.9,1.9-1.1c1.8-0.3,2.9-0.9,3.3-1.8c0.6-1.2,0-2.6-0.6-3.7c-0.6-1.1-0.7-2.1-0.3-2.9C49,18.7,49.8,18.2,51,18z
	 M66.4,23.5c-0.5-0.7-0.5-1.7-0.1-2.8l-0.9-0.3c-0.7,1.9-0.3,3.1,0.2,3.8c0.7,1,1.9,1.6,3.5,1.6c1.5,0,2.4,0.3,2.7,0.8
	c0.1,0.2,0.2,0.5,0.2,0.8v-1.9c-0.8-0.6-2-0.7-2.9-0.7C67.9,24.6,66.9,24.2,66.4,23.5z M71.6,29.4c-0.4,1.2-0.4,2.2,0.1,3
	c0.1,0.1,0.2,0.2,0.3,0.4v-5C72,28.2,71.8,28.7,71.6,29.4z M71.7,40.6c-1.2,0.9-2,1.3-2.6,1.1c-0.6-0.2-1.2-1-1.7-2.3
	c-0.4-1.2-1.1-1.9-2-2.2c-1.7-0.5-3.4,0.6-3.5,0.7l0.6,0.8c0,0,1.4-0.9,2.6-0.5c0.6,0.2,1.1,0.8,1.4,1.6c0.6,1.7,1.4,2.7,2.4,3
	c0.2,0.1,0.4,0.1,0.6,0.1c0.9,0,1.8-0.5,2.6-1.1v-1.3C71.9,40.4,71.8,40.5,71.7,40.6z M69.7,64.9c-0.6,0.3-1.3,0.3-2.1-0.1
	c-1.6-0.8-2.9-0.9-3.8-0.4c-1.1,0.7-1.4,2.2-1.5,3.4C62.2,69,61.7,70,61,70.4c-0.7,0.4-1.7,0.4-2.8-0.1l-0.4,0.9
	c0.8,0.4,1.5,0.5,2.1,0.5c0.7,0,1.3-0.2,1.6-0.4c1-0.6,1.7-1.8,1.8-3.3c0.1-1.5,0.5-2.3,1-2.7c0.6-0.3,1.5-0.2,2.9,0.4
	c1.1,0.5,2.2,0.6,3,0.1c1-0.5,1.6-1.7,1.8-2.4v-0.6l-0.8-0.2C71.2,62.7,70.9,64.3,69.7,64.9z M34.4,52.1c-1.5-0.1-2.3-0.3-2.7-0.9
	c-0.4-0.6-0.3-1.5,0.3-2.9c0.5-1.2,0.5-2.2,0-3c-0.9-1.5-3-1.8-3.1-1.8l-0.1,1c0,0,1.7,0.2,2.3,1.3c0.3,0.6,0.3,1.3,0,2.1
	c-0.7,1.7-0.7,2.9-0.2,3.8c0.7,1.1,2.2,1.3,3.5,1.3c1.2,0,2.2,0.5,2.6,1.2c0.5,0.7,0.5,1.7,0,2.8l0.9,0.4c0.7-1.8,0.4-3.1-0.1-3.8
	C37.2,52.7,35.9,52.1,34.4,52.1z M26.3,49.9c-0.8-0.3-1.4-1.2-1.6-2.4c-0.2-1.2-0.7-2.7-1.9-3.2c-0.9-0.4-2.2-0.2-3.7,0.8
	c-0.8,0.5-1.5,0.6-2.1,0.4c-1.2-0.5-1.7-2.1-1.7-2.1l-1,0.3c0,0.1,0.6,2.1,2.3,2.7c0.9,0.4,1.9,0.2,3-0.4c1.2-0.7,2.2-1,2.8-0.7
	c0.6,0.3,1,1.1,1.3,2.5c0.3,1.5,1.1,2.6,2.2,3.1c0.3,0.1,0.8,0.3,1.3,0.3c0.7,0,1.5-0.2,2.4-0.8l-0.5-0.9
	C28,50.1,27.1,50.2,26.3,49.9z M13.3,66.5c-0.8-0.3-1.4-1.2-1.6-2.4c-0.2-1.2-0.7-2.7-1.9-3.2c-0.9-0.4-2.2-0.2-3.7,0.8
	C5.3,62.1,4.6,62.2,4,62c-1.2-0.5-1.7-2.1-1.7-2.1l-1,0.3c0,0.1,0.6,2.1,2.3,2.7c0.9,0.4,1.9,0.2,3-0.4c1.2-0.7,2.2-1,2.8-0.7
	c0.6,0.3,1,1.1,1.3,2.5c0.3,1.5,1.1,2.6,2.2,3.1c0.3,0.1,0.8,0.3,1.3,0.3c0.7,0,1.5-0.2,2.4-0.8L16.1,66
	C15,66.7,14.1,66.8,13.3,66.5z M46.7,56.2c0.4,1.2,0.4,2.2-0.1,2.8c-0.5,0.7-1.5,1.1-2.7,1.1c-1.3,0-2.8,0.1-3.6,1.2
	c-0.6,0.8-0.6,2.1,0,3.8c0.3,0.9,0.3,1.6-0.1,2.2c-0.7,1.1-2.4,1.2-2.4,1.2l0.1,1c0.1,0,2.2-0.2,3.1-1.7c0.5-0.8,0.6-1.8,0.2-3
	c-0.5-1.4-0.5-2.3-0.1-2.9c0.4-0.5,1.2-0.8,2.7-0.8c0,0,0.1,0,0.1,0c1.5,0,2.8-0.5,3.5-1.5c0.5-0.7,0.9-1.9,0.3-3.8L46.7,56.2z
	 M34.9,69.9c-1.2-0.8-1.8-1.5-1.8-2.2c0-0.7,0.6-1.4,1.7-2.3c1-0.7,1.5-1.6,1.6-2.6c0.1-1.7-1.6-3.1-1.6-3.2l-0.6,0.8
	c0,0,1.3,1.1,1.3,2.4c0,0.6-0.4,1.3-1.2,1.8c-1.5,1.1-2.2,2.1-2.1,3.1c0,1.3,1.2,2.3,2.3,3c0.5,0.4,0.9,0.8,1.2,1.2h1.1
	C36.4,71.2,35.8,70.5,34.9,69.9z M50.3,52.9c-1-0.6-1.7-1.5-1.7-2.3c-0.1-0.8,0.4-1.7,1.4-2.5l-0.6-0.8c-1.5,1.3-1.8,2.5-1.7,3.4
	c0.1,1.2,0.9,2.3,2.2,3.1c1.3,0.8,1.9,1.4,1.9,2.1c0.1,0.7-0.5,1.5-1.6,2.4c-1,0.8-1.4,1.7-1.4,2.7c0.1,1.7,1.8,3,1.8,3l0.6-0.8
	c0,0-1.4-1-1.4-2.3c0-0.6,0.3-1.3,1.1-1.9c1.4-1.2,2-2.2,2-3.3C52.6,54.5,51.4,53.6,50.3,52.9z M69.1,57.6c-1.2-0.1-2.4,0.6-3.3,1.9
	c-0.9,1.2-1.6,1.7-2.2,1.7c0,0,0,0,0,0c-0.7,0-1.4-0.6-2.2-1.9c-0.7-1.1-1.5-1.6-2.5-1.7c-1.7-0.1-3.2,1.4-3.2,1.5l0.7,0.7
	c0,0,1.2-1.3,2.4-1.1c0.6,0.1,1.2,0.5,1.8,1.3c1,1.5,2,2.3,3,2.3c0,0,0,0,0.1,0c1.3,0,2.3-1.1,3-2.1c0.7-1,1.6-1.5,2.5-1.5
	c0.9,0,1.7,0.6,2.3,1.6l0.6-0.4v-0.5C71,58,69.9,57.7,69.1,57.6z M46.4,40.1c-1.5,0.1-2.4-0.2-2.8-0.7c-0.4-0.5-0.4-1.5,0-2.9
	c0.4-1.2,0.3-2.2-0.3-3c-1-1.4-3.1-1.6-3.2-1.6l-0.1,1c0,0,1.7,0.1,2.4,1.1c0.4,0.5,0.4,1.3,0.1,2.1c-0.5,1.7-0.5,3,0.1,3.8
	c0.8,1,2.3,1.1,3.6,1.1c1.2-0.1,2.2,0.3,2.7,1c0.5,0.7,0.6,1.7,0.2,2.8l1,0.3c0.6-1.9,0.1-3.1-0.4-3.7
	C49.2,40.6,47.9,40.1,46.4,40.1z M39.9,50.7c-0.6-0.6-0.8-1.7-0.6-2.8c0.2-1.2,0.4-2.8-0.5-3.7c-0.7-0.7-1.9-1-3.7-0.7
	c-0.9,0.1-1.6,0-2.1-0.5c-0.9-0.9-0.8-2.6-0.8-2.6l-1-0.1c0,0.1-0.2,2.2,1.1,3.4c0.7,0.7,1.7,0.9,2.9,0.7c1.4-0.2,2.4-0.1,2.9,0.4
	c0.5,0.5,0.5,1.4,0.3,2.8c-0.3,1.5,0,2.8,0.9,3.7c0.5,0.5,1.3,1,2.7,1c0.3,0,0.6,0,1-0.1l-0.2-1C41.5,51.6,40.5,51.3,39.9,50.7z
	 M30.3,35c-1.1,0.5-1.8,1.7-2.1,3.2c-0.2,1.5-0.6,2.3-1.2,2.6c-0.6,0.3-1.6,0.1-2.8-0.6c-1.1-0.6-2.1-0.7-3-0.3
	c-1.6,0.7-2.2,2.7-2.2,2.8l1,0.3c0,0,0.5-1.7,1.6-2.1c0.6-0.3,1.3-0.2,2.1,0.3c1.6,0.9,2.8,1.1,3.7,0.6c1.2-0.6,1.6-2.1,1.8-3.3
	c0.2-1.2,0.8-2.1,1.5-2.5c0.8-0.4,1.7-0.3,2.8,0.3l0.5-0.9C32.3,34.4,31.1,34.6,30.3,35z M10.5,0.7c0.4,1.2,0.3,2.2-0.2,2.8
	c-0.5,0.7-1.5,1-2.7,1c-1.3-0.1-2.8,0-3.6,1.1C3.3,6.4,3.2,7.7,3.8,9.4C4,10.3,4,11,3.6,11.5c-0.7,1-2.4,1.1-2.4,1.1l0.1,1
	c0.1,0,2.2-0.1,3.2-1.6c0.6-0.8,0.7-1.8,0.3-3c-0.4-1.4-0.4-2.4,0-2.9C5.1,5.7,6,5.5,7.5,5.6C9,5.6,10.3,5.1,11,4.2
	c0.5-0.7,1-1.8,0.4-3.7L10.5,0.7z M32.3,57.1c-0.9,0.5-1.4,1.3-1.6,2.6c-0.2,1.4-0.7,2.3-1.3,2.6c-0.6,0.3-1.5,0.1-2.8-0.6
	c-1.4-0.8-2.7-0.9-3.8-0.4c-0.7,0.4-1.7,1.2-2,3.2l1,0.2c0.2-1.2,0.7-2.1,1.5-2.4c0.8-0.4,1.8-0.3,2.9,0.3c1.1,0.6,2.5,1.2,3.7,0.7
	c0.9-0.4,1.5-1.5,1.8-3.3c0.2-0.9,0.5-1.5,1.1-1.9c1.1-0.6,2.7,0.1,2.7,0.1l0.4-0.9C35.8,57.2,33.9,56.3,32.3,57.1z M68.4,47.4
	l0.6,0.8c1-0.7,1.9-1,2.8-0.7c0.1,0,0.2,0.1,0.3,0.1v-1.1C71.2,46.3,69.9,46.3,68.4,47.4z M65.7,50.9c-0.6,0.3-1.3,0.2-2.1-0.3
	c-1.6-0.9-2.8-1.1-3.7-0.6c-1.2,0.6-1.5,2.1-1.7,3.3c-0.2,1.2-0.7,2.1-1.5,2.5c-0.8,0.4-1.7,0.3-2.8-0.3l-0.5,0.9
	c0.9,0.5,1.7,0.7,2.3,0.7c0.6,0,1.1-0.1,1.4-0.3c1.1-0.5,1.8-1.7,2-3.2c0.2-1.5,0.6-2.3,1.2-2.6c0.6-0.3,1.6-0.1,2.8,0.6
	c1.1,0.6,2.1,0.7,3,0.3c1.6-0.7,2.1-2.7,2.1-2.8l-1-0.2C67.2,48.7,66.8,50.4,65.7,50.9z M58.1,63.2c-0.5,0.4-1.2,0.4-2.1,0.2
	c-1.7-0.5-3-0.4-3.8,0.2c-1,0.8-1.1,2.4-1,3.6c0.1,1.2-0.3,2.2-0.9,2.7c-0.7,0.5-1.6,0.6-2.8,0.3l-0.3,1c0.6,0.2,1.1,0.2,1.5,0.2
	c1,0,1.7-0.4,2.2-0.7c0.9-0.8,1.4-2,1.3-3.6c-0.1-1.5,0.1-2.4,0.6-2.8c0.5-0.4,1.5-0.4,2.9,0c1.2,0.3,2.2,0.2,3-0.4
	c1.4-1,1.5-3.1,1.5-3.2l-1,0C59.1,60.8,59.1,62.5,58.1,63.2z M63.7,43.1c-1.2,0.2-2.2,1.2-2.8,2.6c-0.6,1.4-1.2,2.1-1.8,2.2
	c-0.7,0.1-1.5-0.3-2.6-1.3c-0.9-0.9-1.9-1.2-2.8-1.1c-1.7,0.3-2.8,2.1-2.8,2.2l0.9,0.5c0,0,0.8-1.5,2.1-1.7c0.6-0.1,1.3,0.2,2,0.8
	c1.1,1.1,2.1,1.6,3,1.6c0.2,0,0.3,0,0.4,0c1.3-0.3,2-1.6,2.5-2.8c0.5-1.1,1.2-1.8,2.1-2c0.8-0.2,1.8,0.2,2.7,1l0.7-0.7
	C65.8,43,64.6,42.9,63.7,43.1z M47.2,44.7l-0.2-1c-1.9,0.5-2.7,1.5-3,2.3c-0.4,1.1-0.2,2.5,0.6,3.8c0.8,1.2,1.1,2.1,0.8,2.7
	c-0.2,0.6-1.1,1.1-2.5,1.5c-1.2,0.3-2,0.9-2.4,1.8c-0.7,1.6,0.3,3.5,0.3,3.5l0.9-0.5c0,0-0.8-1.5-0.3-2.7c0.3-0.6,0.9-1,1.8-1.2
	c1.8-0.4,2.8-1.1,3.2-2.1c0.5-1.2-0.3-2.6-0.9-3.6c-0.7-1-0.9-2-0.5-2.8C45.2,45.6,46,45,47.2,44.7z M67.8,71.7
	c0.4-0.7,1.3-1.2,2.6-1.2l-0.1-1c-2,0.1-2.9,1-3.4,1.7c-0.2,0.3-0.3,0.5-0.4,0.8h1.1C67.7,71.9,67.7,71.8,67.8,71.7z M58.1,40.4
	c-0.9-0.7-2.3-0.9-3.8-0.5c-1.4,0.4-2.3,0.4-2.8,0c-0.5-0.4-0.8-1.4-0.7-2.8c0.1-1.3-0.3-2.2-1-2.9c-1.3-1.1-3.4-0.7-3.5-0.7l0.2,1
	c0,0,1.7-0.3,2.6,0.5c0.5,0.4,0.7,1.1,0.7,2c-0.1,1.8,0.3,3,1.1,3.6c1,0.8,2.5,0.5,3.7,0.1c1.2-0.3,2.2-0.2,2.9,0.3
	c0.7,0.5,1,1.5,0.9,2.7l1,0.1C59.5,41.9,58.8,40.9,58.1,40.4z M71.2,19c-0.5-0.5-0.7-1.4-0.5-2.8c0.2-1.3-0.1-2.2-0.8-2.9
	c-1.2-1.2-3.3-1-3.4-1l0.1,1c0,0,1.7-0.2,2.6,0.7c0.5,0.5,0.6,1.2,0.5,2.1c-0.2,1.8,0.1,3,0.8,3.7c0.4,0.4,0.9,0.5,1.4,0.6v-1
	C71.7,19.3,71.4,19.2,71.2,19z M69.6,54c-0.6,0.7-1.2,1.1-1.9,1c-1.2-0.1-2.2-1.4-2.3-1.4l-0.8,0.6c0.1,0.1,1.3,1.8,3,1.9
	c1,0,1.9-0.4,2.7-1.4c0.6-0.7,1.1-1.1,1.6-1.4v-1.1C71.2,52.4,70.5,53,69.6,54z M44.7,67.3c-0.6-0.7-0.9-1.4-0.7-2
	c0.2-1.2,1.7-2,1.8-2l-0.5-0.9c-0.1,0-2,1-2.3,2.7c-0.2,1,0.1,1.9,1,2.9c0.9,1.1,1.3,2,1.2,2.6c-0.1,0.5-0.6,1-1.5,1.4h1.8
	c0.3-0.3,0.6-0.7,0.7-1.2C46.3,69.8,45.8,68.7,44.7,67.3z M26.8,69.7c-1.1-0.5-1.8-1.3-1.9-2.2c-0.1-0.8,0.3-1.7,1.1-2.6l-0.7-0.7
	c-1.4,1.4-1.6,2.7-1.4,3.5c0.2,1.2,1.1,2.2,2.5,2.9c1,0.5,1.6,0.9,1.9,1.4h1.1C28.9,70.9,27.8,70.2,26.8,69.7z M14.6,71.3
	c0.4-0.6,1.3-0.9,2.7-0.9c1.3-0.1,2.2-0.5,2.7-1.3c1-1.4,0.4-3.4,0.4-3.5l-1,0.3c0,0,0.5,1.7-0.2,2.7c-0.4,0.5-1,0.8-2,0.9
	c-1.8,0.1-3,0.5-3.5,1.4c-0.2,0.4-0.3,0.8-0.4,1.2h1C14.4,71.7,14.5,71.5,14.6,71.3z M2.8,34.1l0.1-1c0,0-1.7-0.2-2.4-1.3
	c-0.3-0.6-0.4-1.3,0-2.2c0.6-1.7,0.6-2.9,0.1-3.8c-0.2-0.2-0.4-0.4-0.6-0.6v1.9c0,0.1,0,0.3,0,0.5v5C1,33.9,2.7,34.1,2.8,34.1z
	 M3.1,40.6c0.8,0.2,1.5,1,1.9,2.1l0.9-0.3c-0.7-1.9-1.8-2.5-2.6-2.8c-1.1-0.3-2.2,0-3.4,0.8v1.3c0.1-0.1,0.2-0.2,0.3-0.2
	C1.2,40.6,2.3,40.3,3.1,40.6z M0,62.8v0.6c0.1-0.3,0.2-0.6,0.2-0.6L0,62.8z M0,59.3v0.5l0.3-0.2C0.2,59.6,0.1,59.5,0,59.3z
	 M1.6,49.8c0.4,1.2,1,2.6,2.2,3c1,0.3,2.2,0,3.6-1.1c0.8-0.6,1.4-0.7,2.1-0.6c1.2,0.3,1.9,1.9,1.9,1.9l0.9-0.4c0-0.1-0.9-2-2.5-2.5
	c-0.9-0.3-1.9,0-2.9,0.7c-1.2,0.9-2.1,1.2-2.7,1c-0.6-0.2-1.1-1-1.6-2.4C2.1,48,1.2,47,0,46.6c0,0,0,0,0,0v1.1
	C0.7,48,1.3,48.8,1.6,49.8z M2.3,20.2c1.2-0.3,2.2-0.1,2.9,0.5c0.6,0.6,0.9,1.5,0.7,2.8l1,0.1c0.2-2-0.4-3.1-1.1-3.6
	c-0.9-0.8-2.2-1.1-3.7-0.7c-0.9,0.2-1.6,0.2-2.1,0.1v1C0.8,20.5,1.6,20.3,2.3,20.2z M2.9,55c0.8,1.3,1.9,2.1,3.1,2.3
	c0.1,0,0.2,0,0.3,0c0.8,0,1.9-0.3,3.1-1.7L8.5,55c-0.8,0.9-1.7,1.4-2.5,1.3c-0.9-0.1-1.7-0.7-2.3-1.8c-0.6-1.1-1.5-2.4-2.8-2.5
	c-0.3,0-0.6,0-0.9,0.1v1.1C0.3,53.1,0.6,53,0.8,53C1.5,53.1,2.1,53.7,2.9,55z M71,4.5l0,1c0,0,0.1,0,0.1,0c0.3,0,0.6,0,0.9-0.1v-1
	C71.7,4.5,71.4,4.5,71,4.5z M55.4,4.9c-0.3,0.6-1.1,1.1-2.5,1.4c-1.2,0.3-2.1,0.9-2.5,1.7c-0.8,1.6,0.2,3.5,0.2,3.5l0.9-0.4
	c0,0-0.8-1.5-0.2-2.7c0.3-0.6,0.9-1,1.8-1.2c1.8-0.4,2.8-1,3.2-2c0.5-1.2-0.2-2.6-0.8-3.7c-0.3-0.6-0.5-1.1-0.6-1.7h-1
	c0.1,0.7,0.3,1.5,0.8,2.2C55.4,3.5,55.6,4.3,55.4,4.9z M2.5,4.1c0.7-1,0.8-2.3,0.3-3.8c0-0.1,0-0.2-0.1-0.3H1.7
	c0.1,0.2,0.1,0.4,0.2,0.6c0.4,1.1,0.3,2.2-0.2,2.9C1.3,4,0.7,4.3,0,4.4v1C1.3,5.2,2.1,4.6,2.5,4.1z M34.5,3.6l0.6,0.8
	C36.7,3.2,37,2,37,1.2c0-0.4-0.1-0.8-0.2-1.2h-1.1C35.8,0.4,36,0.8,36,1.2C36,2,35.5,2.9,34.5,3.6z M66.9,3c0.6,1.4,0.7,2.3,0.4,2.8
	c-0.3,0.6-1.3,0.9-2.7,1c-1.3,0.1-2.2,0.5-2.7,1.3c-1,1.4-0.3,3.5-0.3,3.5l1-0.3c0,0-0.5-1.6,0.2-2.7c0.4-0.5,1-0.8,2-0.9
	c1.8-0.1,3-0.6,3.5-1.5c0.7-1.1,0.2-2.6-0.3-3.7c-0.4-1-0.5-1.9-0.2-2.6h-1.1C66.3,0.9,66.4,1.9,66.9,3z M40.1,3
	c-0.2,0.8-0.2,2.1,1.1,3.6L42,6c-0.8-0.9-1.1-1.9-0.9-2.7c0.2-0.8,1-1.6,2.1-2C43.9,1,44.8,0.6,45.4,0h-1.8
	c-0.2,0.1-0.5,0.2-0.8,0.3C41.4,0.9,40.4,1.9,40.1,3z M27.1,3.1c-0.9,0.9-1.3,1.8-1.2,2.8c0.2,1.7,2,2.8,2.1,2.9l0.5-0.9
	c0,0-1.5-0.9-1.6-2.1c-0.1-0.6,0.2-1.3,0.9-2c1.3-1.3,1.8-2.4,1.7-3.4c0-0.1-0.1-0.3-0.1-0.4h-1.1c0.1,0.2,0.2,0.4,0.2,0.5
	C28.6,1.2,28.1,2.1,27.1,3.1z M14,2.5c0.4,1.1,0.4,2.2,0,2.9c-0.5,0.7-1.4,1.1-2.6,1.2l0,1c2-0.1,2.9-0.9,3.4-1.6
	c0.7-1,0.7-2.4,0.1-3.8c-0.4-0.9-0.5-1.6-0.5-2.1h-1C13.4,0.8,13.6,1.7,14,2.5z"/>
</svg>
